<svg width="160" height="174" viewBox="0 0 160 174" fill="none" xmlns="http://www.w3.org/2000/svg">
    <path d="M0.5 8.00001C0.5 3.85787 3.85787 0.5 8 0.5H152C156.142 0.5 159.5 3.85786 159.5 8V133.608C159.5 136.583 157.742 139.276 155.018 140.474L83.0184 172.127C81.095 172.972 78.905 172.972 76.9816 172.127L4.9816 140.474C2.25828 139.276 0.5 136.583 0.5 133.608V8.00001Z" fill="#0E3419"/>
    <path d="M0.5 8.00001C0.5 3.85787 3.85787 0.5 8 0.5H152C156.142 0.5 159.5 3.85786 159.5 8V133.608C159.5 136.583 157.742 139.276 155.018 140.474L83.0184 172.127C81.095 172.972 78.905 172.972 76.9816 172.127L4.9816 140.474C2.25828 139.276 0.5 136.583 0.5 133.608V8.00001Z" fill="url(#paint0_radial)" fill-opacity="0.4"/>
    <path d="M0.5 8.00001C0.5 3.85787 3.85787 0.5 8 0.5H152C156.142 0.5 159.5 3.85786 159.5 8V133.608C159.5 136.583 157.742 139.276 155.018 140.474L83.0184 172.127C81.095 172.972 78.905 172.972 76.9816 172.127L4.9816 140.474C2.25828 139.276 0.5 136.583 0.5 133.608V8.00001Z" stroke="url(#paint1_linear)"/>
    <path d="M50.552 124.384C50.552 125.035 50.4027 125.632 50.104 126.176C49.8053 126.709 49.3467 127.141 48.728 127.472C48.1093 127.803 47.3413 127.968 46.424 127.968H44.728V132H41.992V120.768H46.424C47.32 120.768 48.0773 120.923 48.696 121.232C49.3147 121.541 49.7787 121.968 50.088 122.512C50.3973 123.056 50.552 123.68 50.552 124.384ZM46.216 125.792C46.7387 125.792 47.128 125.669 47.384 125.424C47.64 125.179 47.768 124.832 47.768 124.384C47.768 123.936 47.64 123.589 47.384 123.344C47.128 123.099 46.7387 122.976 46.216 122.976H44.728V125.792H46.216ZM57.2884 132.112C56.2324 132.112 55.2617 131.867 54.3764 131.376C53.5017 130.885 52.803 130.203 52.2804 129.328C51.7684 128.443 51.5124 127.451 51.5124 126.352C51.5124 125.253 51.7684 124.267 52.2804 123.392C52.803 122.517 53.5017 121.835 54.3764 121.344C55.2617 120.853 56.2324 120.608 57.2884 120.608C58.3444 120.608 59.3097 120.853 60.1844 121.344C61.0697 121.835 61.763 122.517 62.2644 123.392C62.7764 124.267 63.0324 125.253 63.0324 126.352C63.0324 127.451 62.7764 128.443 62.2644 129.328C61.7524 130.203 61.059 130.885 60.1844 131.376C59.3097 131.867 58.3444 132.112 57.2884 132.112ZM57.2884 129.616C58.1844 129.616 58.899 129.317 59.4324 128.72C59.9764 128.123 60.2484 127.333 60.2484 126.352C60.2484 125.36 59.9764 124.571 59.4324 123.984C58.899 123.387 58.1844 123.088 57.2884 123.088C56.3817 123.088 55.6564 123.381 55.1124 123.968C54.579 124.555 54.3124 125.349 54.3124 126.352C54.3124 127.344 54.579 128.139 55.1124 128.736C55.6564 129.323 56.3817 129.616 57.2884 129.616ZM67.2905 129.888H70.8745V132H64.5545V120.768H67.2905V129.888ZM81.8115 120.768L77.9235 128.288V132H75.1875V128.288L71.2995 120.768H74.4035L76.5795 125.472L78.7395 120.768H81.8115ZM90.3699 124.32C90.1672 123.947 89.8739 123.664 89.4899 123.472C89.1165 123.269 88.6739 123.168 88.1619 123.168C87.2765 123.168 86.5672 123.461 86.0339 124.048C85.5005 124.624 85.2339 125.397 85.2339 126.368C85.2339 127.403 85.5112 128.213 86.0659 128.8C86.6312 129.376 87.4045 129.664 88.3859 129.664C89.0579 129.664 89.6232 129.493 90.0819 129.152C90.5512 128.811 90.8925 128.32 91.1059 127.68H87.6339V125.664H93.5859V128.208C93.3832 128.891 93.0365 129.525 92.5459 130.112C92.0659 130.699 91.4525 131.173 90.7059 131.536C89.9592 131.899 89.1165 132.08 88.1779 132.08C87.0685 132.08 86.0765 131.84 85.2019 131.36C84.3379 130.869 83.6605 130.192 83.1699 129.328C82.6899 128.464 82.4499 127.477 82.4499 126.368C82.4499 125.259 82.6899 124.272 83.1699 123.408C83.6605 122.533 84.3379 121.856 85.2019 121.376C86.0659 120.885 87.0525 120.64 88.1619 120.64C89.5059 120.64 90.6365 120.965 91.5539 121.616C92.4819 122.267 93.0952 123.168 93.3939 124.32H90.3699ZM100.413 132.112C99.3574 132.112 98.3867 131.867 97.5014 131.376C96.6267 130.885 95.928 130.203 95.4054 129.328C94.8934 128.443 94.6374 127.451 94.6374 126.352C94.6374 125.253 94.8934 124.267 95.4054 123.392C95.928 122.517 96.6267 121.835 97.5014 121.344C98.3867 120.853 99.3574 120.608 100.413 120.608C101.469 120.608 102.435 120.853 103.309 121.344C104.195 121.835 104.888 122.517 105.389 123.392C105.901 124.267 106.157 125.253 106.157 126.352C106.157 127.451 105.901 128.443 105.389 129.328C104.877 130.203 104.184 130.885 103.309 131.376C102.435 131.867 101.469 132.112 100.413 132.112ZM100.413 129.616C101.309 129.616 102.024 129.317 102.557 128.72C103.101 128.123 103.373 127.333 103.373 126.352C103.373 125.36 103.101 124.571 102.557 123.984C102.024 123.387 101.309 123.088 100.413 123.088C99.5067 123.088 98.7814 123.381 98.2374 123.968C97.704 124.555 97.4374 125.349 97.4374 126.352C97.4374 127.344 97.704 128.139 98.2374 128.736C98.7814 129.323 99.5067 129.616 100.413 129.616ZM117.728 132H114.992L110.416 125.072V132H107.68V120.768H110.416L114.992 127.728V120.768H117.728V132Z" fill="white"/>
    <path d="M99.9062 47.2149C98.4844 46.391 96.6562 46.391 95.0312 47.2149L83.6562 54.0119L75.9375 58.3373L64.7656 65.1343C63.3438 65.9582 61.5156 65.9582 59.8906 65.1343L51.1562 59.7791C49.7344 58.9552 48.7188 57.3075 48.7188 55.4537V45.1552C48.7188 43.5075 49.5312 41.8597 51.1562 40.8299L59.8906 35.6806C61.3125 34.8567 63.1406 34.8567 64.7656 35.6806L73.5 41.0358C74.9219 41.8597 75.9375 43.5075 75.9375 45.3612V52.1582L83.6562 47.6269V40.6239C83.6562 38.9761 82.8438 37.3284 81.2188 36.2985L64.9688 26.6179C63.5469 25.794 61.7188 25.794 60.0938 26.6179L43.4375 36.5045C41.8125 37.3284 41 38.9761 41 40.6239V59.9851C41 61.6328 41.8125 63.2806 43.4375 64.3104L59.8906 73.991C61.3125 74.8149 63.1406 74.8149 64.7656 73.991L75.9375 67.4L83.6562 62.8687L94.8281 56.2776C96.25 55.4537 98.0781 55.4537 99.7031 56.2776L108.438 61.4269C109.859 62.2507 110.875 63.8985 110.875 65.7522V76.0507C110.875 77.6985 110.062 79.3463 108.438 80.3761L99.9062 85.5254C98.4844 86.3493 96.6562 86.3493 95.0312 85.5254L86.2969 80.3761C84.875 79.5522 83.8594 77.9045 83.8594 76.0507V69.4597L76.1406 73.991V80.7881C76.1406 82.4358 76.9531 84.0836 78.5781 85.1134L95.0312 94.794C96.4531 95.6179 98.2812 95.6179 99.9062 94.794L116.359 85.1134C117.781 84.2896 118.797 82.6418 118.797 80.7881V61.2209C118.797 59.5731 117.984 57.9254 116.359 56.8955L99.9062 47.2149Z" fill="white"/>
    <defs>
        <radialGradient id="paint0_radial" cx="0" cy="0" r="1" gradientUnits="userSpaceOnUse" gradientTransform="translate(80 174) rotate(-90) scale(117 107.586)">
            <stop stop-color="#EBD043"/>
            <stop offset="1" stop-color="#7C863D"/>
        </radialGradient>
        <linearGradient id="paint1_linear" x1="80" y1="0" x2="80" y2="174" gradientUnits="userSpaceOnUse">
            <stop stop-color="#365F42"/>
            <stop offset="1" stop-color="#073715"/>
        </linearGradient>
    </defs>
</svg>
