<svg width="160" height="174" viewBox="0 0 160 174" fill="none" xmlns="http://www.w3.org/2000/svg">
    <path d="M0.5 8.00001C0.5 3.85787 3.85787 0.5 8 0.5H152C156.142 0.5 159.5 3.85786 159.5 8V133.608C159.5 136.583 157.742 139.276 155.018 140.474L83.0184 172.127C81.095 172.972 78.905 172.972 76.9816 172.127L4.9816 140.474C2.25828 139.276 0.5 136.583 0.5 133.608V8.00001Z" fill="#0E3419"/>
    <path d="M0.5 8.00001C0.5 3.85787 3.85787 0.5 8 0.5H152C156.142 0.5 159.5 3.85786 159.5 8V133.608C159.5 136.583 157.742 139.276 155.018 140.474L83.0184 172.127C81.095 172.972 78.905 172.972 76.9816 172.127L4.9816 140.474C2.25828 139.276 0.5 136.583 0.5 133.608V8.00001Z" fill="url(#paint0_radial)" fill-opacity="0.4"/>
    <path d="M0.5 8.00001C0.5 3.85787 3.85787 0.5 8 0.5H152C156.142 0.5 159.5 3.85786 159.5 8V133.608C159.5 136.583 157.742 139.276 155.018 140.474L83.0184 172.127C81.095 172.972 78.905 172.972 76.9816 172.127L4.9816 140.474C2.25828 139.276 0.5 136.583 0.5 133.608V8.00001Z" stroke="url(#paint1_linear)"/>
    <path d="M41.728 122.96V125.232H45.392V127.344H41.728V129.808H45.872V132H38.992V120.768H45.872V122.96H41.728ZM55.7283 120.768V122.96H52.7523V132H50.0163V122.96H47.0403V120.768H55.7283ZM66.8294 120.768V132H64.0934V127.376H59.8374V132H57.1014V120.768H59.8374V125.168H64.0934V120.768H66.8294ZM71.5405 122.96V125.232H75.2045V127.344H71.5405V129.808H75.6845V132H68.8045V120.768H75.6845V122.96H71.5405ZM83.1888 132L80.8528 127.76H80.1968V132H77.4608V120.768H82.0528C82.9381 120.768 83.6901 120.923 84.3088 121.232C84.9381 121.541 85.4074 121.968 85.7168 122.512C86.0261 123.045 86.1808 123.643 86.1808 124.304C86.1808 125.051 85.9674 125.717 85.5408 126.304C85.1248 126.891 84.5061 127.307 83.6848 127.552L86.2768 132H83.1888ZM80.1968 125.824H81.8928C82.3941 125.824 82.7674 125.701 83.0128 125.456C83.2688 125.211 83.3968 124.864 83.3968 124.416C83.3968 123.989 83.2688 123.653 83.0128 123.408C82.7674 123.163 82.3941 123.04 81.8928 123.04H80.1968V125.824ZM90.6343 122.96V125.232H94.2983V127.344H90.6343V129.808H94.7783V132H87.8983V120.768H94.7783V122.96H90.6343ZM99.2425 120.768V127.488C99.2425 128.16 99.4078 128.677 99.7385 129.04C100.069 129.403 100.555 129.584 101.195 129.584C101.835 129.584 102.325 129.403 102.667 129.04C103.008 128.677 103.179 128.16 103.179 127.488V120.768H105.915V127.472C105.915 128.475 105.701 129.323 105.275 130.016C104.848 130.709 104.272 131.232 103.547 131.584C102.832 131.936 102.032 132.112 101.147 132.112C100.261 132.112 99.4665 131.941 98.7625 131.6C98.0692 131.248 97.5198 130.725 97.1145 130.032C96.7092 129.328 96.5065 128.475 96.5065 127.472V120.768H99.2425ZM120.556 120.768V132H117.82V125.264L115.308 132H113.1L110.572 125.248V132H107.836V120.768H111.068L114.22 128.544L117.34 120.768H120.556Z" fill="white"/>
    <g opacity="0.6">
        <path opacity="0.6" d="M79.0054 48.1367L51.8755 60.272L79.0054 76.0362L106.125 60.272L79.0054 48.1367Z" fill="white"/>
    </g>
    <g opacity="0.45">
        <path opacity="0.45" d="M51.8755 60.2721L79.0054 76.0364V16L51.8755 60.2721Z" fill="white"/>
    </g>
    <g opacity="0.8">
        <path opacity="0.8" d="M79.0054 16V76.0364L106.125 60.2721L79.0054 16Z" fill="white"/>
    </g>
    <g opacity="0.45">
        <path opacity="0.45" d="M51.8755 65.3271L79.0054 102.918V81.0914L51.8755 65.3271Z" fill="white"/>
    </g>
    <g opacity="0.8">
        <path opacity="0.8" d="M79.0054 81.0914V102.918L106.146 65.3271L79.0054 81.0914Z" fill="white"/>
    </g>
    <defs>
        <radialGradient id="paint0_radial" cx="0" cy="0" r="1" gradientUnits="userSpaceOnUse" gradientTransform="translate(80 174) rotate(-90) scale(117 107.586)">
            <stop stop-color="#EBD043"/>
            <stop offset="1" stop-color="#7C863D"/>
        </radialGradient>
        <linearGradient id="paint1_linear" x1="80" y1="0" x2="80" y2="174" gradientUnits="userSpaceOnUse">
            <stop stop-color="#365F42"/>
            <stop offset="1" stop-color="#073715"/>
        </linearGradient>
    </defs>
</svg>
