<svg width="160" height="174" viewBox="0 0 160 174" fill="none" xmlns="http://www.w3.org/2000/svg">
<path d="M0.5 8.00001C0.5 3.85787 3.85787 0.5 8 0.5H152C156.142 0.5 159.5 3.85786 159.5 8V133.608C159.5 136.583 157.742 139.276 155.018 140.474L83.0184 172.127C81.095 172.972 78.905 172.972 76.9816 172.127L4.9816 140.474C2.25828 139.276 0.5 136.583 0.5 133.608V8.00001Z" fill="#0E3419"/>
<path d="M0.5 8.00001C0.5 3.85787 3.85787 0.5 8 0.5H152C156.142 0.5 159.5 3.85786 159.5 8V133.608C159.5 136.583 157.742 139.276 155.018 140.474L83.0184 172.127C81.095 172.972 78.905 172.972 76.9816 172.127L4.9816 140.474C2.25828 139.276 0.5 136.583 0.5 133.608V8.00001Z" fill="url(#paint0_radial)" fill-opacity="0.4"/>
<path d="M0.5 8.00001C0.5 3.85787 3.85787 0.5 8 0.5H152C156.142 0.5 159.5 3.85786 159.5 8V133.608C159.5 136.583 157.742 139.276 155.018 140.474L83.0184 172.127C81.095 172.972 78.905 172.972 76.9816 172.127L4.9816 140.474C2.25828 139.276 0.5 136.583 0.5 133.608V8.00001Z" stroke="url(#paint1_linear)"/>
<path d="M28.792 126.24C29.4427 126.379 29.9653 126.704 30.36 127.216C30.7547 127.717 30.952 128.293 30.952 128.944C30.952 129.883 30.6213 130.629 29.96 131.184C29.3093 131.728 28.3973 132 27.224 132H21.992V120.768H27.048C28.1893 120.768 29.08 121.029 29.72 121.552C30.3707 122.075 30.696 122.784 30.696 123.68C30.696 124.341 30.52 124.891 30.168 125.328C29.8267 125.765 29.368 126.069 28.792 126.24ZM24.728 125.312H26.52C26.968 125.312 27.3093 125.216 27.544 125.024C27.7893 124.821 27.912 124.528 27.912 124.144C27.912 123.76 27.7893 123.467 27.544 123.264C27.3093 123.061 26.968 122.96 26.52 122.96H24.728V125.312ZM26.744 129.792C27.2027 129.792 27.5547 129.691 27.8 129.488C28.056 129.275 28.184 128.971 28.184 128.576C28.184 128.181 28.0507 127.872 27.784 127.648C27.528 127.424 27.1707 127.312 26.712 127.312H24.728V129.792H26.744ZM35.2749 120.768V132H32.5389V120.768H35.2749ZM47.3056 132H44.5696L39.9936 125.072V132H37.2576V120.768H39.9936L44.5696 127.728V120.768H47.3056V132ZM56.2809 130.016H52.0889L51.4169 132H48.5529L52.6169 120.768H55.7849L59.8489 132H56.9529L56.2809 130.016ZM55.5769 127.904L54.1849 123.792L52.8089 127.904H55.5769ZM71.1338 132H68.3978L63.8218 125.072V132H61.0858V120.768H63.8218L68.3978 127.728V120.768H71.1338V132ZM72.653 126.368C72.653 125.259 72.893 124.272 73.373 123.408C73.853 122.533 74.5197 121.856 75.373 121.376C76.237 120.885 77.213 120.64 78.301 120.64C79.6343 120.64 80.7757 120.992 81.725 121.696C82.6743 122.4 83.309 123.36 83.629 124.576H80.621C80.397 124.107 80.077 123.749 79.661 123.504C79.2557 123.259 78.7917 123.136 78.269 123.136C77.4263 123.136 76.7437 123.429 76.221 124.016C75.6983 124.603 75.437 125.387 75.437 126.368C75.437 127.349 75.6983 128.133 76.221 128.72C76.7437 129.307 77.4263 129.6 78.269 129.6C78.7917 129.6 79.2557 129.477 79.661 129.232C80.077 128.987 80.397 128.629 80.621 128.16H83.629C83.309 129.376 82.6743 130.336 81.725 131.04C80.7757 131.733 79.6343 132.08 78.301 132.08C77.213 132.08 76.237 131.84 75.373 131.36C74.5197 130.869 73.853 130.192 73.373 129.328C72.893 128.464 72.653 127.477 72.653 126.368ZM88.0405 122.96V125.232H91.7045V127.344H88.0405V129.808H92.1845V132H85.3045V120.768H92.1845V122.96H88.0405ZM96.8874 126.368C96.8874 125.259 97.1274 124.272 97.6074 123.408C98.0874 122.533 98.754 121.856 99.6074 121.376C100.471 120.885 101.447 120.64 102.535 120.64C103.869 120.64 105.01 120.992 105.959 121.696C106.909 122.4 107.543 123.36 107.863 124.576H104.855C104.631 124.107 104.311 123.749 103.895 123.504C103.49 123.259 103.026 123.136 102.503 123.136C101.661 123.136 100.978 123.429 100.455 124.016C99.9327 124.603 99.6714 125.387 99.6714 126.368C99.6714 127.349 99.9327 128.133 100.455 128.72C100.978 129.307 101.661 129.6 102.503 129.6C103.026 129.6 103.49 129.477 103.895 129.232C104.311 128.987 104.631 128.629 104.855 128.16H107.863C107.543 129.376 106.909 130.336 105.959 131.04C105.01 131.733 103.869 132.08 102.535 132.08C101.447 132.08 100.471 131.84 99.6074 131.36C98.754 130.869 98.0874 130.192 97.6074 129.328C97.1274 128.464 96.8874 127.477 96.8874 126.368ZM114.851 132.112C113.795 132.112 112.824 131.867 111.939 131.376C111.064 130.885 110.366 130.203 109.843 129.328C109.331 128.443 109.075 127.451 109.075 126.352C109.075 125.253 109.331 124.267 109.843 123.392C110.366 122.517 111.064 121.835 111.939 121.344C112.824 120.853 113.795 120.608 114.851 120.608C115.907 120.608 116.872 120.853 117.747 121.344C118.632 121.835 119.326 122.517 119.827 123.392C120.339 124.267 120.595 125.253 120.595 126.352C120.595 127.451 120.339 128.443 119.827 129.328C119.315 130.203 118.622 130.885 117.747 131.376C116.872 131.867 115.907 132.112 114.851 132.112ZM114.851 129.616C115.747 129.616 116.462 129.317 116.995 128.72C117.539 128.123 117.811 127.333 117.811 126.352C117.811 125.36 117.539 124.571 116.995 123.984C116.462 123.387 115.747 123.088 114.851 123.088C113.944 123.088 113.219 123.381 112.675 123.968C112.142 124.555 111.875 125.349 111.875 126.352C111.875 127.344 112.142 128.139 112.675 128.736C113.219 129.323 113.944 129.616 114.851 129.616ZM124.853 120.768V132H122.117V120.768H124.853ZM136.884 132H134.148L129.572 125.072V132H126.836V120.768H129.572L134.148 127.728V120.768H136.884V132Z" fill="white"/>
<path d="M58.0644 60.9999L49.0322 70.0321L40 60.9999L49.0322 51.9677L58.0644 60.9999ZM79.9998 39.0645L95.4837 54.5483L104.516 45.516L79.9999 21L55.4839 45.516L64.516 54.5483L79.9998 39.0645ZM110.968 51.9677L101.935 60.9999L110.968 70.0321L120 60.9999L110.968 51.9677ZM79.9999 82.9353L64.516 67.4515L55.4839 76.4837L79.9999 101L104.516 76.4837L95.4837 67.4515L79.9999 82.9353ZM79.9999 70.0321L89.0321 60.9999L79.9999 51.9677L70.9677 60.9999L79.9999 70.0321Z" fill="white"/>
<defs>
    <radialGradient id="paint0_radial" cx="0" cy="0" r="1" gradientUnits="userSpaceOnUse" gradientTransform="translate(80 174) rotate(-90) scale(117 107.586)">
        <stop stop-color="#EBD043"/>
        <stop offset="1" stop-color="#7C863D"/>
    </radialGradient>
    <linearGradient id="paint1_linear" x1="80" y1="0" x2="80" y2="174" gradientUnits="userSpaceOnUse">
        <stop stop-color="#365F42"/>
        <stop offset="1" stop-color="#073715"/>
    </linearGradient>
</defs>
</svg>
