<svg width="153" height="32" viewBox="0 0 153 32" fill="none" xmlns="http://www.w3.org/2000/svg">
<g clip-path="url(#clip0_2492_4697)">
<path d="M26.9585 9.7759C26.2994 9.36998 25.4425 9.36998 24.7175 9.7759L19.5762 12.8879L16.0828 14.9175L10.9416 18.0296C10.2825 18.4355 9.4256 18.4355 8.70055 18.0296L4.61393 15.5941C3.9548 15.1882 3.4934 14.444 3.4934 13.6321V8.82875C3.4934 8.01691 3.88888 7.27273 4.61393 6.86681L8.63464 4.49894C9.29377 4.09302 10.1506 4.09302 10.8757 4.49894L14.8964 6.86681C15.5555 7.27273 16.0169 8.01691 16.0169 8.82875V11.9408L19.5103 9.84355V6.7315C19.5103 5.91966 19.1149 5.17548 18.3898 4.76956L10.9416 0.30444C10.2825 -0.10148 9.4256 -0.10148 8.70055 0.30444L1.12053 4.76956C0.39548 5.17548 0 5.91966 0 6.7315V15.7294C0 16.5412 0.39548 17.2854 1.12053 17.6913L8.70055 22.1564C9.35969 22.5624 10.2166 22.5624 10.9416 22.1564L16.0828 19.112L19.5762 17.0148L24.7175 13.9704C25.3766 13.5645 26.2335 13.5645 26.9585 13.9704L30.9792 16.3383C31.6384 16.7442 32.0998 17.4884 32.0998 18.3002V23.1036C32.0998 23.9154 31.7043 24.6596 30.9792 25.0655L26.9585 27.5011C26.2994 27.907 25.4425 27.907 24.7175 27.5011L20.6968 25.1332C20.0376 24.7273 19.5762 23.9831 19.5762 23.1712V20.0592L16.0828 22.1564V25.2685C16.0828 26.0803 16.4783 26.8245 17.2034 27.2304L24.7834 31.6956C25.4425 32.1015 26.2994 32.1015 27.0244 31.6956L34.6045 27.2304C35.2636 26.8245 35.725 26.0803 35.725 25.2685V16.2706C35.725 15.4588 35.3295 14.7146 34.6045 14.3087L26.9585 9.7759Z" fill="white"/>
<path d="M49.6421 29.1225V21.6525C50.4459 22.6725 51.9046 23.2425 53.6016 23.2425C57.9183 23.2425 60.8359 20.1525 60.8359 15.4425C60.8359 10.7325 58.1565 7.64249 53.9588 7.64249C52.0237 7.64249 50.5352 8.36249 49.6421 9.53249V7.88249H45.5039V29.1225H49.6421ZM53.0955 19.6425C50.8627 19.6425 49.4039 17.9625 49.4039 15.4425C49.4039 12.8925 50.8627 11.2125 53.0955 11.2125C55.2687 11.2125 56.7573 12.8925 56.7573 15.4425C56.7573 17.9625 55.2687 19.6425 53.0955 19.6425Z" fill="white"/>
<path d="M70.2315 23.2425C74.846 23.2425 78.1506 19.9425 78.1506 15.4425C78.1506 10.9425 74.846 7.64249 70.2315 7.64249C65.6171 7.64249 62.3125 10.9425 62.3125 15.4425C62.3125 19.9425 65.6171 23.2425 70.2315 23.2425ZM70.2315 19.6425C67.9987 19.6425 66.4804 17.9325 66.4804 15.4425C66.4804 12.9225 67.9987 11.2125 70.2315 11.2125C72.4644 11.2125 73.9827 12.9225 73.9827 15.4425C73.9827 17.9325 72.4644 19.6425 70.2315 19.6425Z" fill="white"/>
<path d="M84.7904 23.0025V1.3125H80.6523V23.0025H84.7904Z" fill="white"/>
<path d="M97.2318 7.88251L94.1059 17.6325L90.9501 7.88251H86.7227L92.1708 22.8825L89.9678 29.1225H93.9273L96.041 22.9425L101.489 7.88251H97.2318Z" fill="white"/>
<path d="M113.109 9.38249C112.275 8.33249 110.787 7.64249 108.971 7.64249C104.594 7.64249 101.945 10.7325 101.945 15.4425C101.945 20.1525 104.594 23.2425 109.03 23.2425C110.787 23.2425 112.364 22.5825 113.139 21.4725V23.4525C113.139 24.8625 112.216 25.8525 110.965 25.8525H104.058V29.1225H111.62C115.014 29.1225 117.277 27.0525 117.277 23.9025V7.88249H113.109V9.38249ZM109.685 19.6425C107.482 19.6425 106.023 17.9925 106.023 15.4425C106.023 12.8925 107.482 11.2125 109.685 11.2125C111.918 11.2125 113.377 12.8925 113.377 15.4425C113.377 17.9925 111.918 19.6425 109.685 19.6425Z" fill="white"/>
<path d="M127.708 23.2425C132.323 23.2425 135.627 19.9425 135.627 15.4425C135.627 10.9425 132.323 7.64249 127.708 7.64249C123.094 7.64249 119.789 10.9425 119.789 15.4425C119.789 19.9425 123.094 23.2425 127.708 23.2425ZM127.708 19.6425C125.475 19.6425 123.957 17.9325 123.957 15.4425C123.957 12.9225 125.475 11.2125 127.708 11.2125C129.941 11.2125 131.459 12.9225 131.459 15.4425C131.459 17.9325 129.941 19.6425 127.708 19.6425Z" fill="white"/>
<path d="M142.063 23.0025V14.7225C142.063 12.7725 143.343 11.3625 145.159 11.3625C146.885 11.3625 148.046 12.6825 148.046 14.5125V23.0025H152.214V13.5825C152.214 10.1025 150.011 7.64249 146.617 7.64249C144.563 7.64249 142.896 8.51249 142.063 9.98249V7.88249H137.895V23.0025H142.063Z" fill="white"/>
</g>
<defs>
<clipPath id="clip0_2492_4697">
<rect width="153" height="32" fill="white"/>
</clipPath>
</defs>
</svg>
