<svg width="56" height="56" viewBox="0 0 56 56" fill="none" xmlns="http://www.w3.org/2000/svg">
<path d="M40.2214 19.8309C39.3358 19.2981 38.1845 19.2981 37.2104 19.8309L30.3025 23.9154L25.6088 26.5792L18.7011 30.6638C17.8155 31.1966 16.6642 31.1966 15.69 30.6638L10.1993 27.4672C9.31366 26.9345 8.69372 25.9577 8.69372 24.8921V18.5877C8.69372 17.5222 9.22509 16.5455 10.1993 16.0127L15.6015 12.9049C16.4871 12.3721 17.6383 12.3721 18.6126 12.9049L24.0148 16.0127C24.9003 16.5455 25.5203 17.5222 25.5203 18.5877V22.6723L30.214 19.9196V15.8351C30.214 14.7695 29.6827 13.7928 28.7085 13.26L18.7011 7.39958C17.8155 6.86681 16.6642 6.86681 15.69 7.39958L5.50554 13.26C4.53137 13.7928 4 14.7695 4 15.8351V27.6448C4 28.7103 4.53137 29.6871 5.50554 30.2198L15.69 36.0803C16.5757 36.6131 17.727 36.6131 18.7011 36.0803L25.6088 32.0845L30.3025 29.3319L37.2104 25.3361C38.0959 24.8034 39.2472 24.8034 40.2214 25.3361L45.6236 28.444C46.5093 28.9767 47.1292 29.9535 47.1292 31.019V37.3235C47.1292 38.3889 46.5978 39.3657 45.6236 39.8984L40.2214 43.0952C39.3358 43.6279 38.1845 43.6279 37.2104 43.0952L31.8082 39.9873C30.9225 39.4546 30.3025 38.4778 30.3025 37.4122V33.3277L25.6088 36.0803V40.1649C25.6088 41.2304 26.1402 42.2071 27.1144 42.7399L37.2989 48.6004C38.1845 49.1332 39.3358 49.1332 40.3099 48.6004L50.4945 42.7399C51.3801 42.2071 52 41.2304 52 40.1649V28.3551C52 27.2897 51.4686 26.3129 50.4945 25.7802L40.2214 19.8309Z" fill="#7950DD"/>
</svg>
