<svg width="1980" height="1563" xmlns="http://www.w3.org/2000/svg">
    <defs>
        <radialGradient gradientTransform="translate(1377.09 1032.82) rotate(-45.9291) scale(1123.4 882.114)" gradientUnits="userSpaceOnUse" r="1" cy="0" cx="0" id="paint0_radial">
            <stop stop-color="#184726"/>
            <stop stop-color="#102817" offset="1"/>
        </radialGradient>
        <radialGradient gradientTransform="translate(1428.55 924.265) rotate(-68.2549) scale(1123.4 882.114)" gradientUnits="userSpaceOnUse" r="1" cy="0" cx="0" id="paint1_radial">
            <stop stop-color="#184726"/>
            <stop stop-color="#102817" offset="1"/>
        </radialGradient>
    </defs>
    <g>
        <title>background</title>
        <rect fill="none" id="canvas_background" height="1565" width="1982" y="-1" x="-1"/>
    </g>
    <g>
        <title>Layer 1</title>
        <path id="svg_1" fill="url(#paint0_radial)" d="m667.090022,157.228029c-217.895,-109.293 -453.889,-56.018 -555.754,165.448c-78.519,170.707 -115.457,348.814 -107.209,516.934c8.248,168.13 61.4,320.53 154.268,442.32c92.868,121.8 222.28,208.84 375.606,252.62c153.329,43.78 325.329,42.81 499.219,-2.81c173.89,-45.63 343.73,-134.35 492.94,-257.52c149.21,-123.16 272.7,-276.55 358.41,-445.21c128.89,-253.62 -120.69,-482.128 -402.48,-442.951l-107.4,14.932c-113.01,15.712 -228.12,-3.266 -330.11,-54.42l-377.49,-189.343z" opacity="0.6"/>
        <path id="svg_2" fill="url(#paint1_radial)" d="m751.260022,320.902029c-281.692,-112.357 -616.223,29.72 -609.379,332.918c0.157,6.95 0.371,13.88 0.644,20.81c7.271,184.79 55.567,356.11 140.172,497.22c84.606,141.12 202.631,247.21 342.558,307.93c139.925,60.71 296.975,73.97 455.815,38.49c158.84,-35.48 314.05,-118.49 450.48,-240.94c136.42,-122.44 249.41,-280.14 327.93,-457.69c78.52,-177.55 119.88,-368.898 120.06,-555.36c0.26,-270.429 -313.88,-340.83 -518.85,-164.416l-147.76,127.182c-155.11,133.499 -371.58,169.673 -561.67,93.856z" opacity="0.6"/>
    </g>
</svg>