<svg width="1440" height="268" viewBox="0 0 1440 268" fill="none" xmlns="http://www.w3.org/2000/svg">
    <path opacity="0.6" d="M322.281 92.1402C82.1721 50.0503 -128.569 168.875 -162.519 410.269C-188.687 596.337 -172.902 777.548 -116.704 936.216C-60.5055 1094.88 34.186 1225.59 158.129 1315.57C282.072 1405.56 431.033 1451.75 590.473 1449.64C749.913 1447.53 914.386 1397.19 1067.84 1303.53C1221.29 1209.87 1358.48 1076.1 1466.02 915.262C1573.56 754.426 1647.78 572.023 1681.43 385.856C1732.02 105.898 1427.32 -41.2813 1168.67 77.1936L1070.08 122.351C966.349 169.865 850.634 184.758 738.251 165.058L322.281 92.1402Z" fill="url(#paint0_radial)"/>
    <path opacity="0.6" d="M201.064 57.1715C-39.0447 15.0815 -249.786 133.906 -283.736 375.3C-309.904 561.369 -294.119 742.579 -237.921 901.248C-181.722 1059.92 -87.0308 1190.62 36.9124 1280.61C160.856 1370.59 309.816 1416.78 469.256 1414.67C628.696 1412.56 793.169 1362.22 946.622 1268.56C1100.07 1174.9 1237.27 1041.13 1344.81 880.293C1452.35 719.457 1526.56 537.054 1560.21 350.887C1610.81 70.929 1306.1 -76.25 1047.45 42.2249L948.865 87.3823C845.133 134.897 729.417 149.789 617.034 130.089L201.064 57.1715Z" fill="url(#paint1_radial)"/>
    <defs>
        <radialGradient id="paint0_radial" cx="0" cy="0" r="1" gradientUnits="userSpaceOnUse" gradientTransform="translate(763.512 372.809) rotate(-62.6241) scale(1123.4 882.114)">
            <stop stop-color="#273858"/>
            <stop offset="1" stop-color="#080F1B"/>
        </radialGradient>
        <radialGradient id="paint1_radial" cx="0" cy="0" r="1" gradientUnits="userSpaceOnUse" gradientTransform="translate(642.295 337.84) rotate(-62.6241) scale(1123.4 882.114)">
            <stop stop-color="#273858"/>
            <stop offset="1" stop-color="#080F1B"/>
        </radialGradient>
    </defs>
</svg>
