<?xml version="1.0" encoding="utf-8"?>
<!-- Generator: Adobe Illustrator 16.0.0, SVG Export Plug-In . SVG Version: 6.00 Build 0)  -->
<!DOCTYPE svg PUBLIC "-//W3C//DTD SVG 1.1//EN" "http://www.w3.org/Graphics/SVG/1.1/DTD/svg11.dtd">
<svg version="1.1" id="logo" xmlns="http://www.w3.org/2000/svg" xmlns:xlink="http://www.w3.org/1999/xlink" x="0px" y="0px"
	 width="100px" height="52.131px" viewBox="0 0 100 52.131" enableBackground="new 0 0 100 52.131" xml:space="preserve">
<g>
	<path fillRule="evenodd" clipRule="evenodd" fill="#FFFFFF" d="M98.236,13.422c-0.481-0.433-1.194-0.65-2.139-0.65h-1.156
		c-0.443,0-0.771,0.111-0.982,0.332c-0.212,0.222-0.317,0.544-0.317,0.968v11.692c0.035,0.318,0.141,0.562,0.317,0.732
		c0.222,0.212,1.749,2.138,1.749,2.138h-8.063c0,0,1.551-1.926,1.763-2.138s0.317-0.539,0.317-0.982l0.015-11.442
		c0-0.424-0.11-0.747-0.332-0.968c-0.222-0.221-0.545-0.332-0.969-0.332h-1.185c-0.964,0-1.682,0.217-2.153,0.65
		c-0.473,0.434-1.749,1.951-1.749,1.951v-4.421H100v4.421C100,15.373,98.718,13.856,98.236,13.422z M80.368,26.498
		c0.222,0.212,1.748,2.138,1.748,2.138h-8.063c0,0,1.552-1.926,1.764-2.138s0.317-0.539,0.317-0.982v-4.797H69.88v4.797
		c0,0.443,0.105,0.771,0.317,0.982s1.764,2.138,1.764,2.138h-8.064c0,0,1.527-1.926,1.749-2.138
		c0.221-0.212,0.332-0.539,0.332-0.982v-4.797l-1.463-0.926l1.463-0.894v-4.825c0-0.424-0.111-0.747-0.332-0.968
		c-0.222-0.221-1.749-2.152-1.749-2.152h8.064c0,0-1.552,1.931-1.764,2.152c-0.212,0.222-0.317,0.544-0.317,0.968v4.825h6.254
		v-4.825c0-0.424-0.105-0.747-0.317-0.968c-0.212-0.221-1.764-2.152-1.764-2.152h8.063c0,0-1.526,1.931-1.748,2.152
		c-0.222,0.222-0.332,0.544-0.332,0.968v4.825l1.463,0.894l-1.463,0.926v4.797C80.036,25.958,80.146,26.286,80.368,26.498z
		 M57.394,12.772h-1.85c-1.542,0-2.688,0.588-3.439,1.762c-0.751,1.175-1.127,2.929-1.127,5.259c0,2.35,0.376,4.108,1.127,5.273
		c0.752,1.166,1.897,1.749,3.439,1.749h0.549c0.424,0,0.747-0.106,0.969-0.318c0.221-0.212,0.332-0.539,0.332-0.982v-3.497
		c0-0.423-0.111-0.746-0.332-0.968c-0.222-0.221-2.269-2.153-2.269-2.153h9.104c0,0-2.071,1.932-2.283,2.153
		c-0.212,0.222-0.317,0.544-0.317,0.968v9.478c0,0-1.282-1.656-1.764-2.138s-1.194-0.723-2.139-0.723h-1.85
		c-2.697,0-4.769-0.621-6.214-1.864s-2.274-3.424-2.486-5.929l-1.424-1.049l1.424-0.992c0.212-2.504,1.041-4.696,2.486-5.958
		s3.517-1.893,6.214-1.893h5.752v4.421c0,0-1.282-1.517-1.764-1.951C59.051,12.989,58.338,12.772,57.394,12.772z M43.954,14.073
		v11.442c0,0.443,0.105,0.771,0.318,0.982c0.212,0.212,1.272,2.138,1.272,2.138h-7.082c0,0,1.036-1.926,1.257-2.138
		s0.333-0.539,0.333-0.982V14.073c0-0.424-0.111-0.747-0.333-0.968c-0.222-0.221-1.257-2.152-1.257-2.152h2.167l1.376,1.376
		l1.376-1.376h2.162c0,0-1.06,1.931-1.272,2.152C44.06,13.326,43.954,13.649,43.954,14.073z M42.006,24.34l0.381-0.382l-0.381-0.381
		l-0.381,0.381L42.006,24.34z M42.006,19.917l0.591-0.591l-0.591-0.591l-0.591,0.591L42.006,19.917z M42.006,13.273l-0.926,0.926
		l0.926,0.926l0.926-0.926L42.006,13.273z M35.441,26.483c0.222,0.221,1.749,2.153,1.749,2.153h-5.513l-8.013-12.454v9.333
		c0,0.443,0.105,0.771,0.318,0.982c0.211,0.212,1.763,2.138,1.763,2.138H17.94c0,0,1.527-1.926,1.749-2.138
		c0.221-0.212,0.332-0.539,0.332-0.982V14.073c0-0.424-0.111-0.747-0.332-0.968c-0.222-0.221-1.749-2.152-1.749-2.152h5.723
		l7.803,12.107v-8.986c0-0.424-0.111-0.747-0.332-0.968c-0.222-0.221-1.749-2.152-1.749-2.152h7.803c0,0-1.551,1.931-1.763,2.152
		c-0.212,0.222-0.318,0.544-0.318,0.968v11.442C35.109,25.938,35.22,26.261,35.441,26.483z M16.706,28.636H9.22l1.156-1.82
		l-4.393-6.071v4.771c0,0.443,0.106,0.771,0.318,0.982s1.763,2.138,1.763,2.138H0c0,0,1.527-1.926,1.749-2.138
		c0.221-0.212,0.332-0.539,0.332-0.982v-5.317l-1.463-0.926l1.463-0.894v-4.305c0-0.424-0.111-0.747-0.332-0.968
		C1.527,12.883,0,10.952,0,10.952h7.775c0,0-1.262,1.931-1.474,2.152c-0.212,0.222-0.318,0.544-0.318,0.968v2.803l4.393-4.103
		l-1.156-1.82h7.486l-2.139,1.82l-6.134,5.674l6.134,8.369L16.706,28.636z M33.799,31.797l-0.68,0.679L0.565,31.797l32.554-0.68
		L33.799,31.797z M7.839,36.6c-0.222-0.222-2.269-2.152-2.269-2.152h9.104c0,0-2.072,1.931-2.284,2.152s-0.318,0.544-0.318,0.968
		V49.01c0,0.443,0.106,0.771,0.318,0.982s0.54,0.317,0.983,0.317h2.804c0.943,0,1.657-0.216,2.139-0.649
		c0.481-0.434,1.763-1.95,1.763-1.95v4.421H5.57c0,0,2.047-1.927,2.269-2.139c0.221-0.212,0.332-0.539,0.332-0.982V37.567
		C8.171,37.144,8.06,36.821,7.839,36.6z M23.947,46.409l-0.949-0.927l1.568-0.894l2.611-7.669c-0.054-0.123-0.125-0.23-0.214-0.32
		c-0.222-0.222-1.774-2.152-1.774-2.152h2.831h0.094h2.45h0.345h0.587l3.453,10.142l1.623,0.894l-1.003,0.927l1.043,3.062
		c0.193,0.289,1.59,2.659,1.59,2.659h-6.503c0,0,0.622-1.927,0.766-2.139s0.178-0.539,0.101-0.982h0.058l-0.81-2.601h-2.575h-1.536
		l-0.81,2.601h0.058c-0.077,0.443-0.043,0.771,0.101,0.982s0.766,2.139,0.766,2.139h-6.503c0,0,1.397-2.37,1.59-2.659L23.947,46.409
		z M29.156,44.589h2.108l-1.426-4.636l-0.083-0.247l-1.503,4.883H29.156z M41.185,36.6c-0.222-0.222-1.749-2.152-1.749-2.152h5.723
		l7.803,12.106v-8.986c0-0.424-0.11-0.746-0.332-0.968s-1.749-2.152-1.749-2.152h7.804c0,0-1.551,1.931-1.763,2.152
		s-0.318,0.544-0.318,0.968v7.828v3.614c0,0.424,0.111,0.746,0.333,0.968s1.748,2.153,1.748,2.153h-5.513l-8.013-12.454v9.333
		c0,0.443,0.105,0.771,0.318,0.982c0.212,0.212,1.763,2.139,1.763,2.139h-7.803c0,0,1.527-1.927,1.749-2.139
		c0.221-0.212,0.333-0.539,0.333-0.982V37.567C41.517,37.144,41.406,36.821,41.185,36.6z M35.405,31.797l0.68-0.68h23.704l0.68,0.68
		l-0.68,0.679H36.085L35.405,31.797z M62.189,36.6c-0.222-0.222-2.27-2.152-2.27-2.152h8.18c2.602,0,4.6,0.635,5.997,1.906
		s2.201,3.592,2.414,6.096l1.329,0.84l-1.329,0.896c-0.213,2.523-1.017,4.839-2.414,6.081s-3.396,1.864-5.997,1.864h-8.18
		c0,0,2.048-1.927,2.27-2.139c0.221-0.212,0.332-0.539,0.332-0.982V37.567C62.521,37.144,62.41,36.821,62.189,36.6z M66.423,49.01
		c0,0.443,0.106,0.771,0.318,0.982s0.539,0.317,0.982,0.317H68.1c1.503,0,2.64-0.582,3.41-1.748
		c0.771-1.165,1.156-2.923,1.156-5.272c0-2.331-0.386-4.084-1.156-5.259s-1.907-1.763-3.41-1.763h-0.376
		c-0.443,0-0.771,0.11-0.982,0.332s-0.318,0.544-0.318,0.968V49.01z M62.371,31.797l0.68-0.68l32.554,0.68l-32.554,0.679
		L62.371,31.797z M85.99,44.213c-1.946,0-3.479-0.283-4.596-0.852s-1.82-1.925-2.109-3.081l-1.198-0.95l1.198-1.013
		c0.289-1.136,0.997-2.426,2.124-3.004s2.654-0.866,4.581-0.866h6.388v4.42c0,0-1.282-1.517-1.763-1.95
		c-0.482-0.434-1.195-0.649-2.14-0.649H85.99c-0.925,0-1.609,0.26-2.052,0.779c-0.443,0.521-0.665,1.282-0.665,2.283
		c0,1.04,0.222,1.811,0.665,2.312c0.442,0.501,1.127,0.751,2.052,0.751c2.004,0,3.584,0.289,4.74,0.867s2.121,1.772,2.254,3.218
		l1.445,1.107l-1.474,0.855c-0.347,1.138-1.099,2.294-2.255,2.853s-2.727,0.838-4.711,0.838h-6.879V47.71
		c0,0,1.276,1.517,1.749,1.95c0.472,0.434,1.189,0.649,2.153,0.649h2.977c0.982,0,1.729-0.25,2.24-0.751
		c0.51-0.501,0.766-1.262,0.766-2.282c0-1.002-0.256-1.763-0.766-2.283C87.72,44.474,86.973,44.213,85.99,44.213z"/>
	<linearGradient id="SVGID_1_" gradientUnits="userSpaceOnUse" x1="46.4531" y1="6.124" x2="55.8506" y2="6.124">
		<stop  offset="0" style="stop-color:#00FAFB"/>
		<stop  offset="1" style="stop-color:#E4DFA7"/>
	</linearGradient>
	<path fill="url(#SVGID_1_)" d="M50.064,5.573l-2.981-1.297l1.533,1.533l-2.164,2.163l3.159-1.679l6.238-0.144L50.064,5.573z"/>
	<linearGradient id="SVGID_2_" gradientUnits="userSpaceOnUse" x1="28.1558" y1="6.124" x2="37.5532" y2="6.124">
		<stop  offset="0" style="stop-color:#E4DFA7"/>
		<stop  offset="1" style="stop-color:#00FAFB"/>
	</linearGradient>
	<path fill="url(#SVGID_2_)" d="M36.923,4.276l-2.981,1.297l-5.787,0.576l6.238,0.144l3.159,1.679L35.39,5.81L36.923,4.276z"/>
	<linearGradient id="SVGID_3_" gradientUnits="userSpaceOnUse" x1="42" y1="10.3765" x2="42" y2="-4.882812e-04">
		<stop  offset="0" style="stop-color:#27FEED"/>
		<stop  offset="0.079" style="stop-color:#1BC4D4"/>
		<stop  offset="0.2033" style="stop-color:#14A2C6"/>
		<stop  offset="1" style="stop-color:#59FCFD"/>
	</linearGradient>
	<path fill="url(#SVGID_3_)" d="M43.11,0c-0.028,0-0.063,0.018-0.101,0.055c0,0-0.214,0.187-0.457,0.448
		c-0.14,0.151-0.294,0.363-0.411,0.483c-0.318,0.329-1.089,1.151-1.089,1.151c-0.096,0.096-0.096,0.252,0,0.349
		c0,0,0.585,0.586,1.088,1.089c0.279,0.279,0.595,0.472,0.708,0.585c0.14,0.14,0.348,0.471,0.606,0.729
		c0.329,0.33,0.64,0.641,0.64,0.641c0.096,0.096,0.096,0.252,0,0.349c0,0-0.301,0.302-0.444,0.445
		c-0.143,0.143-0.104,0.3-0.254,0.45c-0.15,0.15-0.439,0.244-0.566,0.371c-0.126,0.126-0.754,0.754-0.754,0.754
		c-0.051,0.05-0.115,0.081-0.179,0.081c-0.059,0-0.118-0.025-0.169-0.081c-0.187-0.204-0.287-0.211-0.458-0.376
		s-0.162-0.245-0.291-0.374c-0.128-0.129-1.171-1.172-1.171-1.172c-0.096-0.097-0.064-0.174,0.072-0.174
		c0,0,0.419-0.113,0.825-0.059c0.448,0.06,0.865,0.059,0.865,0.059c0.136,0,0.23-0.202,0.134-0.298c0,0-0.669-0.749-0.991-1.071
		c-0.321-0.322-0.905-0.826-0.905-0.826c-0.299-0.125-0.522,0.152-0.556,0.208c-0.044,0.073-0.162,0.287-0.276,0.384
		c-0.085,0.071-0.346,0.282-0.454,0.347c-0.147,0.089-1.019,1.02-1.019,1.02c-0.096,0.097-0.096,0.376,0,0.472
		c0,0,1.022,1.084,1.771,1.834c0.303,0.303,0.613,0.552,0.713,0.652c0.184,0.184,0.682,0.744,1.114,1.176
		c0.391,0.39,0.726,0.603,0.726,0.603c0.048,0.048,0.111,0.072,0.174,0.072s0.126-0.024,0.174-0.072c0,0,0.053-0.049,0.123-0.126
		c0.194-0.214,0.512-0.501,0.649-0.638c0.194-0.194,0.342-0.165,1.064-0.888c0.232-0.233,0.682-0.806,0.875-1
		c0.497-0.497,0.605-0.695,0.798-0.889c0.115-0.115,0.335-0.415,0.549-0.586c0.147-0.117,0.265-0.262,0.265-0.262
		c0.096-0.096,0.096-0.252,0-0.349c0,0-1.584-1.705-1.782-1.907c-0.198-0.202-0.333-0.252-0.483-0.403
		c-0.15-0.15-0.091-0.16-0.278-0.359c-0.187-0.199-0.536-0.536-0.536-0.536c-0.096-0.096-0.174-0.285-0.174-0.421l-0.009-1.756
		C43.232,0.026,43.154,0,43.11,0"/>
</g>
</svg>
