<svg width="184" height="82" viewBox="0 0 184 82" fill="none" xmlns="http://www.w3.org/2000/svg">
    <path d="M118.967 13.8369C118.638 13.4935 118.19 13.3114 117.734 13.3114C117.487 13.3114 117.238 13.3651 117.004 13.4755C116.625 13.6547 116.225 13.7456 115.813 13.7456C114.257 13.7456 112.941 12.4304 112.941 10.8734V10.749C112.941 10.5337 112.968 10.3148 113.02 10.098C113.19 9.39954 112.904 8.66906 112.305 8.27162C105.868 4.00245 98.3662 1.74625 90.6117 1.74625C85.7953 1.74625 81.0905 2.6081 76.6281 4.30753C72.8001 5.76554 69.2489 7.79985 66.0518 10.3644L60.1884 4.80838C59.8664 4.5033 59.4439 4.34028 59.013 4.34028C58.8393 4.34028 58.6641 4.36678 58.4934 4.42124C57.9002 4.61076 57.4571 5.10866 57.3364 5.71954L56.5757 9.59238C56.4256 9.6921 56.2861 9.80876 56.1603 9.94124C56.019 10.0906 55.9001 10.2537 55.8033 10.4263L51.9537 11.4007C51.3498 11.5534 50.8769 12.0226 50.7194 12.6254C50.5623 13.2282 50.7452 13.8689 51.1974 14.2973L57.3423 20.1201C56.7266 21.0975 56.1533 22.1033 55.6267 23.1289L54.9819 22.9846L53.6667 19.3234C53.4687 18.7721 53.0025 18.3607 52.431 18.2334L42.1925 15.9481C42.0692 15.9209 41.9441 15.9069 41.8204 15.9069C41.3358 15.9069 40.8669 16.1133 40.539 16.4854C40.1269 16.9531 40.0021 17.6074 40.2123 18.1936L41.547 21.9082C41.4693 22.0698 41.409 22.242 41.3696 22.4205C41.3247 22.621 41.3063 22.8223 41.3122 23.02L38.5077 25.8319C38.0679 26.2727 37.9027 26.9186 38.0771 27.5166C38.2516 28.1146 49.5834 30.9912 49.5834 30.9912C49.7067 31.0188 49.8318 31.0321 49.9554 31.0321C50.4044 31.0321 50.8412 30.8554 51.165 30.5301L53.4444 28.2452C52.0291 32.3484 51.3133 36.6419 51.3133 41.0442C51.3133 45.4367 52.0335 49.7504 53.4529 53.8654C54.8255 57.8442 56.8241 61.5621 59.3935 64.9171C59.717 65.3389 60.2186 65.5865 60.7503 65.5865H60.7584C62.1988 65.5913 63.5114 65.9369 64.763 66.6431L66.5647 68.0348C67.5146 69.0137 68.1652 70.1287 68.5505 71.4381L68.6355 72.0707L68.761 73.0043C68.8279 73.5029 69.112 73.9475 69.5367 74.218C75.8306 78.2244 83.1181 80.3422 90.6117 80.3422C96.2197 80.3422 101.637 79.1845 106.713 76.9018C107.325 76.6269 107.719 76.0197 107.721 75.3492C107.726 73.7973 109.042 72.4865 110.593 72.4865C111.072 72.4865 111.551 72.6146 111.978 72.8575C112.241 73.0069 112.532 73.0808 112.822 73.0808C113.179 73.0808 113.534 72.9693 113.833 72.7496C118.708 69.1738 122.751 64.4531 125.526 59.0979C126.942 56.3656 128.033 53.4668 128.769 50.4827C129.526 47.4114 129.91 44.2359 129.91 41.0442C129.91 30.8517 126.024 21.1892 118.967 13.8369Z" fill="#000002"/>
    <path d="M117.735 15.02C117.148 15.2975 116.497 15.4546 115.814 15.4546C113.316 15.4546 111.233 13.3706 111.233 10.8737V10.7494C111.233 10.3876 111.278 10.0351 111.36 9.69614C105.414 5.75265 98.2813 3.45523 90.6119 3.45523C69.8519 3.45523 53.0225 20.2846 53.0225 41.045C53.0225 49.6337 55.9032 57.549 60.7505 63.879H60.7586C62.5309 63.8845 64.1828 64.3313 65.7144 65.2196C66.3768 65.7319 67.0396 66.2434 67.7016 66.7553C68.9186 67.9803 69.7606 69.4247 70.2268 71.0881C70.3027 71.6508 70.3785 72.2145 70.4539 72.778C76.2793 76.4859 83.1944 78.6347 90.6115 78.6347C96.0991 78.6347 101.312 77.4582 106.013 75.3447C106.021 72.8541 108.101 70.779 110.593 70.779C111.398 70.779 112.159 70.9968 112.822 71.3737C122.147 64.5333 128.201 53.4962 128.201 41.0453C128.201 30.9437 124.217 21.7743 117.735 15.02Z" fill="#7294B7"/>
    <path d="M53.7739 41.4656C53.8611 49.3607 56.3967 56.8384 61.1266 63.1379C62.8882 63.2015 64.556 63.6832 66.0894 64.5723C66.1178 64.5893 66.145 64.6077 66.1715 64.6272L68.1587 66.1628C68.1844 66.1827 68.2091 66.204 68.2323 66.2276C69.5343 67.5384 70.4476 69.1057 70.9467 70.8854C70.9559 70.9189 70.9629 70.9534 70.968 70.9877L71.1483 72.3305C76.9804 75.9663 83.7023 77.8858 90.6119 77.8858C95.7171 77.8858 100.653 76.8632 105.29 74.8454C105.41 73.6266 105.95 72.488 106.844 71.5974C107.857 70.5869 109.189 70.0305 110.594 70.0305C111.332 70.0305 112.068 70.1906 112.748 70.4964C117.155 67.177 120.814 62.8541 123.345 57.9686C126.007 52.8306 127.387 47.2804 127.451 41.4652H53.7739V41.4656Z" fill="#77829E"/>
    <path d="M63.534 59.6831C63.2433 59.9039 63.4287 60.3212 63.5553 60.4956C63.9447 61.0329 64.3498 61.5591 64.7719 62.0732C65.1469 62.2016 65.516 62.3488 65.8789 62.5137C66.2417 62.6789 66.6789 62.6635 66.3389 62.2944C65.6544 61.5514 65.0078 60.7815 64.4014 59.9848C64.2578 59.7964 63.899 59.4059 63.534 59.6831Z" fill="#B9DBDD"/>
    <path d="M77.9776 71.14C78.2305 70.4589 77.5368 70.2068 77.3425 70.1221C75.3269 69.2452 73.4222 68.1784 71.6411 66.932C71.1612 66.5963 70.8951 66.766 71.1803 67.2356C71.442 67.6665 71.676 68.114 71.8821 68.5769C73.4608 69.6507 75.1297 70.588 76.881 71.3818C77.1408 71.4999 77.7723 71.6939 77.9776 71.14Z" fill="#B9DBDD"/>
    <path d="M82.6492 71.9125C82.1539 71.7914 81.6611 71.6586 81.1717 71.5139C80.849 71.4186 80.1777 71.2964 79.9786 71.8536C79.7409 72.5182 80.3794 72.7375 80.6955 72.8362C81.2 72.9944 81.7075 73.1401 82.2179 73.2733C82.6511 73.387 83.5148 73.4963 83.6664 72.9193C83.8217 72.3283 83.0415 72.0082 82.6492 71.9125Z" fill="#B9DBDD"/>
    <path d="M117.649 59.8628C117.299 59.5724 116.9 59.8808 116.794 60.0195C115.844 61.2652 114.799 62.4465 113.659 63.5571C110.664 66.4768 107.177 68.7687 103.295 70.3703C99.2764 72.0266 95.009 72.8664 90.6114 72.8664C89.4872 72.8664 88.3718 72.8119 87.2663 72.7019C86.8229 72.6581 85.8705 72.6235 85.7737 73.2789C85.6585 74.0602 86.6135 74.1154 87.1121 74.1695C88.303 74.2972 89.5056 74.3612 90.7185 74.3612C95.2438 74.3612 99.6348 73.4743 103.771 71.7252C104.274 71.5125 104.77 71.2881 105.259 71.0529C105.453 70.7979 105.664 70.5546 105.895 70.3246C106.983 69.2398 108.361 68.566 109.843 68.3772C111.473 67.2434 113.006 65.9631 114.429 64.5404C115.647 63.3223 116.76 62.0244 117.767 60.654C117.895 60.4792 117.999 60.1535 117.649 59.8628Z" fill="#B9DBDD"/>
    <path d="M126.703 41.4656C126.699 41.8222 126.69 42.178 126.675 42.5335H125.605C125.431 46.7368 124.52 50.8157 122.887 54.6775C121.123 58.8481 118.597 62.5943 115.38 65.8117C114.243 66.9485 113.04 67.9976 111.775 68.9585C111.612 69.0821 111.098 69.2882 110.593 69.2831C108.99 69.2661 107.471 69.9175 106.316 71.0686C105.931 71.4524 105.597 71.8738 105.337 72.3327C105.046 72.8486 104.501 73.2118 104.245 73.32C99.9285 75.1457 95.3417 76.0716 90.6118 76.0716C85.8819 76.0716 81.2952 75.1457 76.9789 73.32C75.0969 72.524 73.3026 71.5717 71.6039 70.4721C71.0578 68.6556 70.1035 67.0511 68.7625 65.7013C68.7165 65.655 68.6676 65.6119 68.6161 65.5714L66.6289 64.0365C66.5766 63.996 66.5218 63.9588 66.4647 63.9261C65.3729 63.2928 64.217 62.8537 63.0092 62.6101C61.11 60.1868 59.5441 57.5321 58.3367 54.6779C56.7032 50.8161 55.7924 46.7372 55.6183 42.5339H54.5511C54.5368 42.1788 54.5257 41.8225 54.5217 41.4659H53.0269C53.1192 49.8917 55.9823 57.6524 60.7504 63.8786H60.7585C62.5308 63.8841 64.1828 64.3309 65.7144 65.2192C66.3768 65.7315 67.0396 66.243 67.7016 66.7549C68.9186 67.98 69.7606 69.4244 70.2268 71.0877C70.3026 71.6504 70.3784 72.2142 70.4539 72.7776C76.2793 76.4856 83.1944 78.6343 90.6114 78.6343C96.0991 78.6343 101.312 77.4578 106.013 75.3444C106.021 72.8538 108.101 70.7786 110.593 70.7786C111.398 70.7786 112.159 70.9965 112.822 71.3733C122.042 64.6098 128.063 53.7446 128.198 41.4659H126.703V41.4656Z" fill="#383F5C"/>
    <path d="M127.773 41.2135H127.345C127.332 44.1417 126.974 47.053 126.28 49.8693C125.592 52.6569 124.572 55.3661 123.25 57.9189C120.883 62.4872 117.528 66.5614 113.496 69.7803C113.244 69.9812 112.645 70.2491 111.897 70.0872C111.467 69.9937 111.032 69.9234 110.593 69.9234C109.16 69.9234 107.801 70.4909 106.768 71.5216C106.096 72.1918 105.641 73.0058 105.367 73.8754C105.165 74.5149 104.577 75.0331 104.269 75.1564C99.9312 76.897 95.3444 77.7787 90.6112 77.7787C83.9309 77.7787 77.4261 75.9788 71.7361 72.5649C71.5724 72.4667 71.2699 72.2046 71.1624 71.635C71.13 71.4631 71.0733 70.9733 71.0733 70.9733C71.0678 70.9339 71.0597 70.8942 71.0491 70.8563C70.5449 69.0586 69.6227 67.4758 68.3075 66.1521C68.2813 66.1256 68.253 66.101 68.2236 66.0782L66.5521 64.7865L66.2364 64.5425C66.2065 64.5197 66.1753 64.4987 66.1425 64.48C64.8457 63.7274 63.4414 63.3513 61.9893 63.0955C61.247 62.9653 60.8477 62.5818 60.6851 62.354C58.6383 59.4858 57.0224 56.3545 55.8753 53.0289C54.5667 49.2363 53.8958 45.2619 53.8774 41.2132H53.4502H53.0229C53.0609 49.736 55.9338 57.5899 60.7495 63.8779H60.7576C62.5299 63.8834 64.1818 64.3302 65.7134 65.2185C66.3758 65.7308 67.0386 66.2423 67.7006 66.7542C68.9176 67.9793 69.7596 69.4237 70.2258 71.087C70.3017 71.6497 70.3775 72.2135 70.4529 72.7769C76.2783 76.4848 83.1934 78.6336 90.6105 78.6336C96.0981 78.6336 101.311 77.4571 106.012 75.3437C106.02 72.8531 108.1 70.7779 110.592 70.7779C111.397 70.7779 112.158 70.9958 112.821 71.3726C122.104 64.5631 128.144 53.5949 128.199 41.2135H127.773Z" fill="#77829E"/>
    <path d="M90.7186 72.226C82.3893 72.226 74.5586 68.9828 68.6692 63.0933C62.7797 57.2035 59.5361 49.3732 59.5361 41.0442C59.5361 32.7153 62.7797 24.8846 68.6692 18.9951C74.5586 13.1057 82.3893 9.86212 90.7186 9.86212C99.0476 9.86212 106.878 13.1057 112.767 18.9951C118.657 24.8846 121.9 32.7153 121.9 41.0442C121.9 49.3732 118.657 57.2035 112.767 63.0933C106.878 68.9828 99.0472 72.226 90.7186 72.226Z" fill="#A8434D"/>
    <path d="M90.7188 10.5028C107.586 10.5028 121.26 24.177 121.26 41.0443C121.26 57.9119 107.586 71.5857 90.7188 71.5857C73.8511 71.5857 60.1774 57.9119 60.1774 41.0443C60.177 24.177 73.8508 10.5028 90.7188 10.5028ZM90.7188 9.22147C86.4231 9.22147 82.2552 10.0631 78.3312 11.7224C74.5415 13.325 71.1386 15.6195 68.2167 18.5418C65.2944 21.4637 62.9999 24.8673 61.3973 28.657C59.7376 32.581 58.896 36.7486 58.896 41.0443C58.896 45.3399 59.7376 49.5075 61.3973 53.4311C62.9999 57.2208 65.2944 60.6244 68.2167 63.5464C71.1386 66.4683 74.5419 68.7628 78.3312 70.3654C82.2555 72.0251 86.4231 72.8667 90.7188 72.8667C95.0141 72.8667 99.1821 72.0251 103.106 70.3654C106.895 68.7628 110.298 66.4683 113.221 63.5464C116.143 60.6244 118.437 57.2208 120.04 53.4311C121.7 49.5075 122.541 45.3399 122.541 41.0443C122.541 36.7486 121.7 32.581 120.04 28.657C118.437 24.8673 116.143 21.4641 113.221 18.5418C110.298 15.6195 106.895 13.3254 103.106 11.7224C99.1821 10.0631 95.0137 9.22147 90.7188 9.22147Z" fill="black"/>
    <path d="M109.454 19.9803C109.044 20.2239 108.572 20.3571 108.089 20.3571H107.852C107.148 20.3571 106.465 20.0741 105.969 19.577C105.471 19.0791 105.188 18.3968 105.188 17.6928C105.188 17.429 105.228 17.1677 105.304 16.9182C104.306 16.3135 103.27 15.7671 102.196 15.2879C102.168 15.441 102.14 15.5937 102.112 15.7461C101.603 18.5319 101.077 21.4126 101.077 23.1035V67.2716C105.408 65.5601 109.211 62.8052 112.183 59.3195V22.7686C111.338 21.7776 110.426 20.8458 109.454 19.9803Z" fill="url(#paint0_linear)"/>
    <path d="M62.4199 41.0443C62.4199 49.4958 66.1397 57.078 72.0306 62.2447V19.8438C66.14 25.0105 62.4199 32.5928 62.4199 41.0443Z" fill="url(#paint1_linear)"/>
    <path d="M84.1745 18.2831C83.8367 16.9436 83.4657 15.4727 83.1357 13.856C79.6963 14.7996 76.519 16.3765 73.7388 18.4564V27.5479C74.0604 27.7506 74.3614 27.9884 74.6334 28.2607C74.7125 28.3398 74.7916 28.4189 74.8704 28.498C75.8397 29.4673 76.3909 30.7977 76.3909 32.1688C76.3909 33.5404 75.8397 34.8703 74.8704 35.8396C74.5329 36.1775 74.1506 36.4627 73.7388 36.6934V63.6314C76.5275 65.7179 79.7155 67.2981 83.1673 68.2406C83.3749 52.7831 84.5801 31.3048 85.2807 26.3997C85.6211 24.0176 84.9826 21.4873 84.1745 18.2831Z" fill="url(#paint2_linear)"/>
    <path d="M100.325 15.4392C100.374 15.169 100.424 14.8975 100.473 14.6266C97.403 13.4799 94.0807 12.8517 90.6115 12.8517C88.6177 12.8517 86.6721 13.06 84.7949 13.4542C85.1162 15.0281 85.4835 16.4835 85.8316 17.865C86.6519 21.1174 87.3603 23.926 86.9724 26.6418C86.2717 31.5487 85.0614 53.2327 84.8711 68.6505C86.7247 69.0343 88.6446 69.2363 90.6119 69.2363C93.6295 69.2363 96.5364 68.7601 99.2621 67.8821V23.1039C99.2618 21.258 99.7781 18.4317 100.325 15.4392Z" fill="url(#paint3_linear)"/>
    <path d="M118.804 41.0442C118.804 35.0771 116.948 29.5439 113.785 24.9869V57.1015C116.948 52.545 118.804 47.0113 118.804 41.0442Z" fill="url(#paint4_linear)"/>
    <path d="M109.454 19.9803C109.044 20.2239 108.572 20.3571 108.089 20.3571H107.852C107.148 20.3571 106.465 20.0741 105.969 19.577C105.548 19.1564 105.281 18.6033 105.209 18.0174C105.196 18.1223 105.188 18.2275 105.188 18.3339C105.188 19.0375 105.471 19.7205 105.969 20.218C106.466 20.7152 107.148 20.9982 107.852 20.9982H108.089C108.572 20.9982 109.044 20.8653 109.454 20.6214C110.426 21.4869 111.338 22.4183 112.183 23.4097V22.769C111.338 21.7776 110.426 20.8458 109.454 19.9803Z" fill="url(#paint5_linear)"/>
    <path d="M105.304 16.9182C104.306 16.3135 103.27 15.7671 102.196 15.2879C102.168 15.441 102.14 15.5937 102.112 15.7461C101.603 18.5319 101.077 21.4126 101.077 23.1035V23.7442C101.077 22.0536 102.526 16.0777 102.69 16.1549C103.55 16.5597 104.385 17.0083 105.196 17.4941C105.211 17.2983 105.247 17.1051 105.304 16.9182Z" fill="url(#paint6_linear)"/>
    <path d="M62.4199 41.0443C62.4199 41.1513 62.4229 41.2577 62.4243 41.3644C62.5171 33.0417 66.2147 25.5861 72.0306 20.4845V19.8438C66.14 25.0105 62.4199 32.5928 62.4199 41.0443Z" fill="url(#paint7_linear)"/>
    <path d="M84.175 18.2831C83.8372 16.9436 83.4662 15.4727 83.1361 13.856C79.6968 14.7996 76.5195 16.3765 73.7393 18.4564V19.0971C76.3429 17.1493 79.2953 15.6423 82.4848 14.6837C82.7008 14.6189 85.3125 23.4399 85.3677 25.3413C85.4288 23.2618 84.8646 21.0177 84.175 18.2831Z" fill="url(#paint8_linear)"/>
    <path d="M74.8714 35.8396C74.5339 36.1774 74.1515 36.4626 73.7397 36.6934V37.3337C74.1519 37.1037 74.5339 36.8178 74.8714 36.4803C75.8407 35.511 76.3919 34.1807 76.3919 32.8091C76.3919 32.7021 76.3872 32.5953 76.3809 32.489C76.3018 33.7457 75.7649 34.9465 74.8714 35.8396Z" fill="url(#paint9_linear)"/>
    <path d="M84.7949 13.4542C84.8372 13.6613 84.8803 13.8663 84.9241 14.0695C86.7615 13.6934 88.663 13.4928 90.6115 13.4928C94.0398 13.4928 97.3239 14.107 100.363 15.2279C100.4 15.0281 100.436 14.8275 100.473 14.627C97.403 13.4803 94.0807 12.8521 90.6115 12.8521C88.6177 12.8521 86.6721 13.0604 84.7949 13.4542Z" fill="url(#paint10_linear)"/>
    <path d="M113.785 24.9869V25.6276C116.891 30.1028 118.735 35.5198 118.801 41.3644C118.802 41.2577 118.804 41.1509 118.804 41.0442C118.804 35.0771 116.948 29.5439 113.785 24.9869Z" fill="url(#paint11_linear)"/>
    <path d="M72.0303 65.3455C72.5852 65.7735 73.1552 66.1834 73.7389 66.5732V18.2698C73.1508 18.7118 72.5815 19.1781 72.0303 19.6638V65.3455Z" fill="url(#paint12_linear)"/>
    <path d="M84.7947 13.2408C84.2353 13.3585 83.6826 13.4939 83.1357 13.6444C83.4658 15.2699 83.8368 16.7489 84.1746 18.095C84.9827 21.3161 85.6212 23.8605 85.2808 26.2554C84.6891 30.4197 83.7374 54.1594 83.3308 70.8015C83.8909 70.9395 84.4572 71.0624 85.0287 71.1684C85.4269 54.5064 86.3804 30.6604 86.9718 26.498C87.3597 23.7681 86.6513 20.9445 85.831 17.6744C85.4832 16.2863 85.116 14.8232 84.7947 13.2408Z" fill="url(#paint13_linear)"/>
    <path d="M100.325 15.2364C99.778 18.2448 99.2617 21.0861 99.2617 22.9416V70.4309C99.838 70.2601 100.408 70.0735 100.97 69.87V22.9416C100.97 21.2414 101.497 18.3456 102.005 15.5451C102.033 15.3921 102.061 15.2382 102.089 15.084C101.559 14.8463 101.02 14.6248 100.473 14.4191C100.424 14.6921 100.374 14.9648 100.325 15.2364Z" fill="url(#paint14_linear)"/>
    <path d="M112.076 22.6049V62.8185C112.67 62.2282 113.241 61.6147 113.785 60.9774V24.835C113.251 24.0625 112.681 23.3184 112.076 22.6049Z" fill="url(#paint15_linear)"/>
    <path d="M126.212 30.3502C124.569 24.86 121.659 19.7934 117.631 15.5308C117.05 15.7638 116.44 15.8815 115.814 15.8815C114.492 15.8815 113.239 15.3564 112.285 14.4022C111.331 13.4487 110.806 12.1953 110.806 10.8734V10.749C110.806 10.4638 110.831 10.1768 110.882 9.89268C104.85 5.95913 97.8481 3.88214 90.6118 3.88214C85.5948 3.88214 80.728 4.8647 76.1468 6.80259C71.7216 8.67424 67.7472 11.354 64.334 14.7668C60.9208 18.18 58.241 22.1544 56.3693 26.5796C56.1971 26.9867 56.0337 27.3959 55.877 27.8069C56.6538 27.7227 57.434 27.659 58.2046 27.5946C58.8618 27.5401 59.5194 27.4993 60.177 27.4779C61.8393 23.8723 64.1492 20.6232 67.052 17.8132C70.1116 14.8519 73.6742 12.5268 77.642 10.9025C81.751 9.22035 86.1141 8.36732 90.6114 8.36732C95.1087 8.36732 99.4721 9.22035 103.581 10.9025C107.549 12.5268 111.111 14.8519 114.17 17.8132C117.23 20.7744 119.632 24.2233 121.31 28.0638C121.583 28.689 121.834 29.3212 122.065 29.9583C122.175 30.2637 122.736 31.5285 124.054 31.7626C126.231 32.149 126.331 30.7461 126.212 30.3502Z" fill="#B9D7DF"/>
    <path d="M76.1786 6.89939C71.7538 8.77067 67.779 11.4504 64.3662 14.864C63.4237 15.8065 62.5394 16.7934 61.71 17.8194C61.7894 17.8128 67.0504 16.7868 68.9621 16.2267C71.572 14.0563 74.4928 12.302 77.6745 10.9993C81.7833 9.31715 86.147 8.46449 90.6443 8.46449C92.0523 8.46449 93.447 8.5484 94.8256 8.71473C97.4008 7.82454 99.9599 6.88835 102.504 5.91241C98.712 4.63693 94.7152 3.97931 90.644 3.97931C85.6267 3.97894 80.7599 4.9615 76.1786 6.89939Z" fill="white"/>
    <path d="M58.1706 23.0582C57.5189 24.2277 56.9275 25.4333 56.4016 26.6764C55.9656 27.7072 55.5843 28.7545 55.2399 29.8107C54.9256 30.7759 55.938 31.3007 56.7314 31.3007C57.6032 31.3007 58.7524 31.0232 59.3471 29.63C59.5539 29.145 59.7324 28.6463 59.9447 28.1602C60.7315 26.3603 61.6791 24.6476 62.7765 23.0295C61.2534 23.2062 59.6849 23.2875 58.1706 23.0582Z" fill="white"/>
    <path d="M110.838 10.9709V10.8461C110.838 10.5609 110.863 10.2739 110.914 9.9898C110.362 9.62952 109.801 9.28508 109.233 8.95609C107.437 9.68436 105.635 10.3964 103.826 11.089C105.307 11.7069 106.735 12.4186 108.094 13.2348C109.867 14.3002 111.122 12.5032 110.937 11.9549C110.872 11.6337 110.838 11.3047 110.838 10.9709Z" fill="white"/>
    <path d="M65.6739 18.1208L58.0596 10.9058L59.0134 6.04895L66.6281 13.264L65.6739 18.1208Z" fill="#7093B1"/>
    <path d="M63.8243 10.607L62.8701 15.4639L64.5383 17.0448L65.4925 12.1879L63.8243 10.607Z" fill="#B8DBDF"/>
    <path d="M60.4054 7.36826L59.4512 12.2248L61.1193 13.8061L62.0735 8.94918L60.4054 7.36826Z" fill="#B8DBDF"/>
    <path d="M64.7859 19.0581L57.1713 11.8424L52.3726 13.0571L59.9876 20.2722L64.7859 19.0581Z" fill="#7093B1"/>
    <path d="M57.1836 17.6155L61.9819 16.4011L63.6505 17.9821L58.8517 19.1965L57.1836 17.6155Z" fill="#B8DBDF"/>
    <path d="M53.7651 14.3761L58.5639 13.1617L60.232 14.7426L55.4336 15.957L53.7651 14.3761Z" fill="#B8DBDF"/>
    <path d="M72.9501 26.5716C72.7756 26.5716 72.6012 26.5072 72.4643 26.378L57.4274 12.1151C57.1445 11.8464 57.1323 11.3997 57.4006 11.1163C57.6689 10.8333 58.1156 10.8212 58.3986 11.0898L73.4355 25.3528C73.7185 25.6207 73.7306 26.0678 73.4623 26.3508C73.324 26.4976 73.137 26.5716 72.9501 26.5716Z" fill="#58192A"/>
    <path d="M57.9347 12.3289C58.3247 12.3289 58.6409 12.0127 58.6409 11.6227C58.6409 11.2327 58.3247 10.9165 57.9347 10.9165C57.5447 10.9165 57.2285 11.2327 57.2285 11.6227C57.2285 12.0127 57.5447 12.3289 57.9347 12.3289Z" fill="#DD7E6A"/>
    <path d="M53.7327 24.5594L43.4946 22.2741L41.8213 17.6159L52.0594 19.9012L53.7327 24.5594Z" fill="#7093B1"/>
    <path d="M48.2896 19.0592L49.9628 23.7177L52.2058 24.2186L50.5325 19.5601L48.2896 19.0592Z" fill="#B8DBDF"/>
    <path d="M43.6924 18.0333L45.3657 22.6918L47.609 23.1926L45.9357 18.5341L43.6924 18.0333Z" fill="#B8DBDF"/>
    <path d="M53.4515 25.8191L43.213 23.5338L39.7178 27.0382L49.9559 29.3235L53.4515 25.8191Z" fill="#7093B1"/>
    <path d="M46.1855 28.4819L49.6812 24.9778L51.9245 25.4786L48.4289 28.9831L46.1855 28.4819Z" fill="#B8DBDF"/>
    <path d="M41.5894 27.4563L45.0846 23.9518L47.328 24.4523L43.8327 27.9571L41.5894 27.4563Z" fill="#B8DBDF"/>
    <path d="M73.0741 30.0231C72.9246 30.1125 72.7417 30.1467 72.5581 30.1063L43.5726 23.6361C43.1917 23.5507 42.9521 23.1731 43.0372 22.7926C43.1222 22.4118 43.4994 22.1722 43.8802 22.2576L72.8654 28.7277C73.2459 28.8127 73.4858 29.1903 73.4008 29.5708C73.3574 29.7677 73.2349 29.927 73.0741 30.0231Z" fill="#58192A"/>
    <path d="M43.755 23.6593C44.145 23.6593 44.4612 23.3431 44.4612 22.9531C44.4612 22.5631 44.145 22.2469 43.755 22.2469C43.365 22.2469 43.0488 22.5631 43.0488 22.9531C43.0488 23.3431 43.365 23.6593 43.755 23.6593Z" fill="#DD7E6A"/>
    <path d="M65.5479 58.3303C65.7543 58.6191 66.2647 59.3445 66.4804 59.6256H114.957C115.172 59.3445 115.646 58.7144 115.853 58.4256L65.5479 58.3303Z" fill="#7A2230"/>
    <path d="M180.955 35.2107L177.806 32.0613L164.216 32.2998L161.84 34.6763L159.438 32.2748L127.347 32.7373V34.0677L126.149 32.8135L113.582 32.9434L110.475 36.194V47.3447H105.669V42.0051H106.417V33.0351L64.0221 32.928V33.502L63.4546 32.9346L49.8655 32.8154L49.2855 33.3953V32.6321L3.04627 31.8137V40.8308H3.90039V51.1889H3.0459V60.2284L49.2851 59.0435V58.3034L49.8651 58.8834L63.4542 58.7645L64.0217 58.1967V58.6641H109.834L159.438 59.5303L161.626 57.3426L164.216 59.9333L177.805 60.171L180.955 57.022V35.2107H180.955ZM21.627 50.0035L19.3612 45.005L21.3686 41.2576H21.627V50.0035ZM84.739 49.6941H83.0304V42.0051H84.739V49.6941ZM96.0579 49.6941H94.3497V42.0051H96.0579V49.6941Z" fill="black"/>
    <path d="M171.023 39.3349L168.887 40.9V44.0339H177.11L179.246 46.1694V56.3144L177.11 58.4499L164.936 58.2364L162.8 56.1006V51.2949H168.887V52.0426L171.023 54.1785L173.159 52.0426V49.3724H164.936L162.8 46.9164V37.4121L164.936 35.2762L177.11 35.0631L179.246 37.199V42.1114H173.159V41.2569L171.023 39.3349Z" fill="#FF6212"/>
    <path d="M161.946 38.4811V54.6061L158.743 57.8096L146.569 57.5961V53.3248H147.21V39.7625H146.569V35.4911L158.743 35.2773L161.946 38.4811ZM153.51 52.8975L155.859 52.0438V41.151L153.51 40.1897V52.8975Z" fill="#FF6212"/>
    <path d="M145.715 39.7629V35.4911L137.919 35.5978V39.7629H138.56V44.5682L136.211 42.2189V39.7629H137.065V35.5978L129.056 35.7046V39.7629H129.91V53.3248H129.056V57.3823L137.065 57.4894V53.3248H136.211V47.9851L138.56 50.3344V53.3248H137.706V57.4894L145.715 57.5965V53.3248H144.86V39.7629H145.715Z" fill="#FF6212"/>
    <path d="M127.561 53.0046V38.0465L125.425 35.812L114.319 35.9265L112.183 38.1614V52.7912H111.542V57.0626H119.445V52.7908H118.804V49.4807H120.94V52.8976H120.299V57.1693L128.202 57.276V53.0046H127.561ZM120.94 45.3156H118.804V41.151H120.94V45.3156Z" fill="#FF6212"/>
    <path d="M97.1265 56.9558V52.6841H97.7668V40.2969H97.1265V36.0255H104.708V40.2969H103.961V52.4703H105.242V50.3344H110.688V56.9558H97.1265Z" fill="#FF6212"/>
    <path d="M96.2716 40.2968V36.0251H82.8164V40.2968H86.4475V52.6841H85.8064V56.9558H93.2812V52.6841H92.6409V40.2968H96.2716Z" fill="#FF6212"/>
    <path d="M81.9622 40.1898V35.9184H74.3799V40.1898H75.021V43.3936H72.6717V40.1898H73.3124V35.9184H65.7305V40.1898H66.3708V52.7908H65.7305V57.0622H73.3124V52.7908H72.6717V49.5874H75.021V52.7908H74.3799V57.0622H81.9622V52.7908H81.3212V40.1898H81.9622Z" fill="#FF6212"/>
    <path d="M64.8756 43.8208H58.6818V42.3256L56.5459 40.1898L54.4101 42.3256V50.6557L56.5459 52.7912L58.6818 50.6557V49.5878H56.5459V45.6369H64.8753V54.9271L62.7394 57.0629L50.5656 57.17L48.4297 55.0338V37.9479L50.5656 35.812L62.7394 35.9188L64.8753 38.0543V43.8208H64.8756Z" fill="#FF6212"/>
    <path d="M40.6353 39.7629H39.9946V35.4911L47.5769 35.5978V39.8692H46.9362V53.111H47.5769V57.382L39.9946 57.5958V53.3244H40.6353V39.7629Z" fill="#FF6212"/>
    <path d="M39.1399 39.5494V35.4911L31.3446 35.3844V39.5494H31.9853V44.5682L29.636 42.2189V39.5494H30.4905V35.3844L22.481 35.2773V39.5494H23.3355V53.5382H22.481V57.8099L30.4905 57.7032V53.5382H29.636V47.9851L31.9853 50.3344V53.5382H31.1312V57.7032L39.1399 57.5965V53.5382H38.2858V39.5494H39.1399Z" fill="#FF6212"/>
    <path d="M17.1421 45.5294L20.7728 53.5386H21.627V57.81L14.3656 58.0238V54.7132L11.9095 48.0926V54.1796H12.764V58.1305L4.75488 58.4507V54.1796H5.60901V39.1225H4.75488V34.8508L12.6573 35.0642V39.1222H11.8032V44.3548L14.3659 38.9084V35.171L21.2004 35.2773V39.5491H20.3459L17.1421 45.5294Z" fill="#FF6212"/>
    <path d="M171.023 38.053L168.887 39.6189V42.752H177.11L179.246 44.8879V55.0325L177.11 57.1688L164.936 56.9553L162.8 54.8191V50.0134H168.887V50.7608L171.023 52.8967L173.159 50.7608V48.0913H164.936L162.8 45.6353V36.131L164.936 33.9951L177.11 33.7816L179.246 35.9175V40.8299H173.159V39.9755L171.023 38.053Z" fill="#FFEB3D"/>
    <path d="M161.946 37.2001V53.3247L158.743 56.5285L146.569 56.3151V52.0437H147.21V38.4814H146.569V34.2104L158.743 33.9966L161.946 37.2001ZM153.51 51.6164L155.859 50.762V39.8695L153.51 38.9087V51.6164Z" fill="#FFEB3D"/>
    <path d="M145.715 38.4811V34.2101L137.919 34.3164V38.4811H138.56V43.2868L136.211 40.9371V38.4811H137.065V34.3164L129.056 34.4235V38.4811H129.91V52.0437H129.056V56.1013L137.065 56.208V52.0437H136.211V46.704L138.56 49.0533V52.0437H137.706V56.208L145.715 56.3151V52.0437H144.86V38.4811H145.715Z" fill="#FFEB3D"/>
    <path d="M127.561 51.7232V36.7651L125.425 34.5306L114.319 34.6451L112.183 36.8799V51.5098H111.542V55.7811H119.445V51.5098H118.804V48.1996H120.94V51.6168H120.299V55.8882L128.202 55.9946V51.7236H127.561V51.7232ZM120.94 44.0346H118.804V39.8695H120.94V44.0346Z" fill="#FFEB3D"/>
    <path d="M97.1265 55.6741V51.403H97.7668V39.0154H97.1265V34.744H104.708V39.0154H103.961V51.1892H105.242V49.0534H110.688V55.6741H97.1265Z" fill="#FFEB3D"/>
    <path d="M96.2716 39.0151V34.7437H82.8164V39.0151H86.4475V51.4027H85.8064V55.6741H93.2812V51.4027H92.6409V39.0151H96.2716Z" fill="#FFEB3D"/>
    <path d="M81.9622 38.9083V34.6369H74.3799V38.9083H75.021V42.1121H72.6717V38.9083H73.3124V34.6369H65.7305V38.9083H66.3708V51.5094H65.7305V55.7807H73.3124V51.5094H72.6717V48.3056H75.021V51.5094H74.3799V55.7807H81.9622V51.5094H81.3212V38.9083H81.9622Z" fill="#FFEB3D"/>
    <path d="M64.8756 42.539H58.6818V41.0442L56.5459 38.9083L54.4101 41.0442V49.3735L56.5459 51.5094L58.6818 49.3735V48.306H56.5459V44.3551H64.8753V53.6456L62.7394 55.7811L50.5656 55.8882L48.4297 53.7523V36.6661L50.5656 34.5302L62.7394 34.637L64.8753 36.7728V42.539H64.8756Z" fill="#FFEB3D"/>
    <path d="M40.6353 38.4811H39.9946V34.2101L47.5769 34.3164V38.5881H46.9362V51.8295H47.5769V56.1009L39.9946 56.3147V52.0437H40.6353V38.4811Z" fill="#FFEB3D"/>
    <path d="M39.1399 38.2677V34.2101L31.3446 34.1034V38.2677H31.9853V43.2868L29.636 40.9371V38.2677H30.4905V34.1034L22.481 33.9963V38.2677H23.3355V52.2572H22.481V56.5285L30.4905 56.4215V52.2572H29.636V46.7041L31.9853 49.0534V52.2572H31.1312V56.4215L39.1399 56.3151V52.2572H38.2858V38.2677H39.1399Z" fill="#FFEB3D"/>
    <path d="M17.1421 44.248L20.7728 52.2572H21.627V56.5285L14.3656 56.742V53.4318L11.9095 46.8107V52.8975H12.764V56.8487L4.75488 57.1692V52.8975H5.60901V37.8404H4.75488V33.569L12.6573 33.7828V37.8404H11.8032V43.0733L14.3659 37.6273V33.8892L21.2004 33.9962V38.2676H20.3459L17.1421 44.248Z" fill="#FFEB3D"/>
    <defs>
        <linearGradient id="paint0_linear" x1="106.63" y1="61.8323" x2="106.63" y2="17.9108" gradientUnits="userSpaceOnUse">
            <stop stop-color="#A8434D"/>
            <stop offset="1" stop-color="#CE8A67"/>
        </linearGradient>
        <linearGradient id="paint1_linear" x1="67.2253" y1="61.8323" x2="67.2253" y2="17.9109" gradientUnits="userSpaceOnUse">
            <stop stop-color="#A8434D"/>
            <stop offset="1" stop-color="#CE8A67"/>
        </linearGradient>
        <linearGradient id="paint2_linear" x1="79.5567" y1="61.8327" x2="79.5567" y2="17.9109" gradientUnits="userSpaceOnUse">
            <stop stop-color="#A8434D"/>
            <stop offset="1" stop-color="#CE8A67"/>
        </linearGradient>
        <linearGradient id="paint3_linear" x1="92.634" y1="61.8326" x2="92.634" y2="17.9107" gradientUnits="userSpaceOnUse">
            <stop stop-color="#A8434D"/>
            <stop offset="1" stop-color="#CE8A67"/>
        </linearGradient>
        <linearGradient id="paint4_linear" x1="116.295" y1="61.8326" x2="116.295" y2="17.9108" gradientUnits="userSpaceOnUse">
            <stop stop-color="#A8434D"/>
            <stop offset="1" stop-color="#CE8A67"/>
        </linearGradient>
        <linearGradient id="paint5_linear" x1="108.686" y1="40.4587" x2="108.686" y2="24.196" gradientUnits="userSpaceOnUse">
            <stop stop-color="#A8434D"/>
            <stop offset="1" stop-color="#FFB58C"/>
        </linearGradient>
        <linearGradient id="paint6_linear" x1="103.191" y1="40.4588" x2="103.191" y2="24.1961" gradientUnits="userSpaceOnUse">
            <stop stop-color="#A8434D"/>
            <stop offset="1" stop-color="#FFB58C"/>
        </linearGradient>
        <linearGradient id="paint7_linear" x1="67.2253" y1="40.459" x2="67.2253" y2="24.1963" gradientUnits="userSpaceOnUse">
            <stop stop-color="#A8434D"/>
            <stop offset="1" stop-color="#FFB58C"/>
        </linearGradient>
        <linearGradient id="paint8_linear" x1="79.5559" y1="40.4594" x2="79.5559" y2="24.1963" gradientUnits="userSpaceOnUse">
            <stop stop-color="#A8434D"/>
            <stop offset="1" stop-color="#FFB58C"/>
        </linearGradient>
        <linearGradient id="paint9_linear" x1="75.0656" y1="40.4586" x2="75.0656" y2="24.1972" gradientUnits="userSpaceOnUse">
            <stop stop-color="#A8434D"/>
            <stop offset="1" stop-color="#FFB58C"/>
        </linearGradient>
        <linearGradient id="paint10_linear" x1="92.634" y1="40.4602" x2="92.634" y2="24.1965" gradientUnits="userSpaceOnUse">
            <stop stop-color="#A8434D"/>
            <stop offset="1" stop-color="#FFB58C"/>
        </linearGradient>
        <linearGradient id="paint11_linear" x1="116.295" y1="40.459" x2="116.295" y2="24.1961" gradientUnits="userSpaceOnUse">
            <stop stop-color="#A8434D"/>
            <stop offset="1" stop-color="#FFB58C"/>
        </linearGradient>
        <linearGradient id="paint12_linear" x1="72.8848" y1="75.3664" x2="72.8848" y2="18.2701" gradientUnits="userSpaceOnUse">
            <stop stop-color="#6F1C24"/>
            <stop offset="1" stop-color="#A8434D"/>
        </linearGradient>
        <linearGradient id="paint13_linear" x1="85.1086" y1="81.7144" x2="85.1086" y2="13.2412" gradientUnits="userSpaceOnUse">
            <stop stop-color="#6F1C24"/>
            <stop offset="1" stop-color="#A8434D"/>
        </linearGradient>
        <linearGradient id="paint14_linear" x1="100.675" y1="80.6276" x2="100.675" y2="14.4194" gradientUnits="userSpaceOnUse">
            <stop stop-color="#6F1C24"/>
            <stop offset="1" stop-color="#A8434D"/>
        </linearGradient>
        <linearGradient id="paint15_linear" x1="112.93" y1="70.1389" x2="112.93" y2="22.605" gradientUnits="userSpaceOnUse">
            <stop stop-color="#6F1C24"/>
            <stop offset="1" stop-color="#A8434D"/>
        </linearGradient>
    </defs>
</svg>
