<svg width="1440" height="778" viewBox="0 0 1440 778" fill="none" xmlns="http://www.w3.org/2000/svg">
<path d="M14.2683 663.909L0 661.987V0H1440V658.144L1420.79 658.785C1420.24 658.571 1418.6 658.272 1416.4 658.785C1414.21 659.297 1412.2 663.268 1411.46 665.19H1403.78C1399.39 665.19 1402.13 667.111 1397.2 667.752C1392.26 668.392 1388.41 669.033 1383.48 669.673C1379.52 670.186 1362.07 673.303 1353.84 674.797C1353.48 674.797 1352.3 674.157 1350.55 671.595C1342.21 674.669 1329.15 675.438 1323.66 675.438V678L1322.01 677.359L1304.45 679.921L1303.9 684.405L1301.71 680.562L1289.09 681.843L1289.63 685.686C1289.27 685.259 1288.21 684.149 1286.89 683.124C1284.15 682.483 1268.23 686.326 1253.41 690.81C1241.56 694.397 1222.5 692.304 1214.45 690.81C1214.45 691.237 1214.34 692.347 1213.9 693.372C1213.35 694.653 1206.22 692.731 1204.02 694.653C1202.38 693.372 1196.89 695.293 1195.79 695.934C1194.7 696.574 1194.7 698.496 1194.15 697.215C1193.71 696.19 1187.74 695.934 1184.82 695.934C1185 696.788 1185.26 698.624 1184.82 699.136C1184.38 699.649 1175.49 698.923 1171.1 698.496L1171.65 701.698H1161.77C1160.67 701.698 1159.57 706.182 1157.38 706.822C1155.62 707.335 1145.67 708.317 1140.91 708.744L1139.27 704.901C1127.56 707.249 1101.07 712.587 1088.78 715.149C1074.51 716.43 1077.8 716.43 1067.93 718.992C1058.6 720.913 1042.13 722.194 1039.39 723.475C1036.65 724.756 1015.79 730.521 1000.98 733.723C999.659 732.186 1003.35 729.667 1005.37 728.599C996.585 728.599 971.341 738.207 953.781 738.847C936.22 738.207 927.439 742.05 921.951 745.252C920.305 743.971 924.695 742.05 925.793 739.488C919.756 741.409 910.976 743.331 899.451 746.533C887.927 749.736 858.841 752.298 853.902 751.657C848.963 751.017 853.354 751.017 849.512 751.017C846.439 751.017 840.549 756.141 837.988 758.703H828.11C825.915 758.703 817.683 763.827 815.488 762.546C813.293 761.265 758.963 772.794 753.476 773.434C749.085 773.947 728.963 776.21 719.451 777.277C719.451 776.637 719.232 775.1 718.354 774.075C717.256 772.794 715.061 776.637 713.963 776.637C713.085 776.637 713.431 775.783 713.714 775.356C713.065 775.142 711.549 774.715 710.671 774.715C709.573 774.715 709.573 777.277 709.024 777.918C708.585 778.43 708.11 776.423 707.927 775.356C705.915 774.929 701.671 773.818 700.793 772.794C699.695 771.513 699.695 774.715 698.598 774.075C697.5 773.434 698.049 773.434 697.5 772.794C696.951 772.153 698.049 774.075 682.683 774.075C670.39 774.075 660 770.232 656.341 768.31L655.793 772.153L655.244 768.31L648.659 767.67L647.561 771.513L647.012 766.389H634.939C635.122 766.389 635.488 765.876 635.488 763.827C628.024 764.852 622.5 762.973 620.671 761.905C620.488 762.119 619.902 763.058 619.024 765.108C612.439 762.546 552.073 755.5 540 752.938C527.927 750.376 526.829 755.5 522.439 749.736C518.927 745.124 506.341 745.679 500.488 746.533C498.659 745.679 494.781 743.587 493.902 742.05C492.805 740.128 486.768 736.926 486.22 737.566C485.671 738.207 489.512 739.488 483.476 739.488C477.439 739.488 439.573 734.364 431.341 733.083C424.01 731.942 414.502 727.753 412.898 726.85C413.434 727.564 414.403 730.323 414.878 731.802C413.049 730.948 408.951 729.112 407.195 728.599C405 727.959 398.963 727.318 383.049 726.678C370.629 720.68 340.489 717.038 325.944 715.872C327.558 716.234 331.047 717.524 337.5 720.913C327.402 721.426 308.415 714.722 300.183 711.306C300 710.665 298.098 709.512 291.951 710.025C285.805 710.537 270 705.541 262.866 702.979C262.134 702.339 258.366 701.186 249.146 701.698C239.927 702.211 212.012 696.361 199.207 693.372L197.561 696.574C193.171 696.147 183.732 695.165 181.098 694.653C178.463 694.14 177.439 691.023 177.256 689.529H167.927V686.967C167.927 686.454 158.049 686.753 153.11 686.967C153.659 686.54 154.427 685.43 153.11 684.405C151.793 683.38 145.976 685.259 143.232 686.326C143.415 686.113 143.78 685.301 143.78 683.764C143.78 682.227 130.976 681.416 124.573 681.202C124.939 680.775 125.341 679.921 124.024 679.921C122.378 679.921 100.427 681.843 94.939 681.202C90.5488 680.69 64.2073 674.157 51.5854 670.954L51.0366 674.157L49.939 670.954L36.7683 668.392L35.122 670.954V667.752L16.4634 665.83L14.2683 667.752V663.909Z" fill="#141201"/>
</svg>
