<svg width="232" height="56" viewBox="0 0 232 56" fill="none" xmlns="http://www.w3.org/2000/svg">
    <g clip-path="url(#clip0)">
        <path d="M0 28.6562L4.88954 23.7666L9.77905 28.6562L4.88954 33.5457L0 28.6562Z" fill="url(#paint0_linear)"/>
        <path d="M6.51953 35.1757L11.409 30.2861L22.818 41.6951L17.9285 46.5846L6.51953 35.1757Z" fill="url(#paint1_linear)"/>
        <path d="M19.5582 35.1757L24.4478 30.2861L29.3373 35.1757L24.4478 40.0652L19.5582 35.1757Z" fill="url(#paint2_linear)"/>
        <path d="M26.0775 28.6562L30.967 23.7666L35.8566 28.6562L30.967 33.5457L26.0775 28.6562Z" fill="url(#paint3_linear)"/>
        <path d="M32.5968 22.1371L37.4863 17.2476L42.3759 22.1371L37.4863 27.0266L32.5968 22.1371Z" fill="url(#paint4_linear)"/>
        <path d="M39.1163 15.618L44.0059 10.7285L55.4147 22.1375L50.5252 27.027L39.1163 15.618Z" fill="#F3BA2F"/>
        <path d="M32.5968 35.1757L37.4863 30.2861L42.3759 35.1757L37.4863 40.0652L32.5968 35.1757Z" fill="url(#paint5_linear)"/>
        <path d="M39.1163 41.695L50.5252 30.2861L55.4147 35.1757L44.0059 46.5845L39.1163 41.695Z" fill="url(#paint6_linear)"/>
        <path d="M52.155 28.6562L57.0446 23.7666L61.9341 28.6562L57.0446 33.5457L52.155 28.6562Z" fill="#F3BA2F"/>
        <path d="M6.51953 22.1375L17.9285 10.7285L22.818 15.6181L11.409 27.027L6.51953 22.1375Z" fill="url(#paint7_linear)"/>
        <path d="M19.5582 22.1371L24.4478 17.2476L29.3373 22.1371L24.4478 27.0266L19.5582 22.1371Z" fill="url(#paint8_linear)"/>
        <path d="M75.1103 14.6519H71.821V30.209H75.1103V14.6519Z" fill="#FAFAFA"/>
        <path d="M92.9683 14.6519H89.6935V24.4358H89.5574L82.8421 14.6519H79.9556V30.209H83.2447V20.4174H83.3587L90.1267 30.209H92.9683V14.6519Z" fill="#FAFAFA"/>
        <path d="M97.8243 30.209H101.113V23.7826H107.441V21.0706H101.113V17.3637H108.125V14.6519H97.8243V30.209Z" fill="#FAFAFA"/>
        <path d="M115.766 14.6519H112.476V30.209H115.766V14.6519Z" fill="#FAFAFA"/>
        <path d="M133.623 14.6519H130.349V24.4358H130.212L123.498 14.6519H120.611V30.209H123.9V20.4174H124.014L130.783 30.209H133.623V14.6519Z" fill="#FAFAFA"/>
        <path d="M141.769 14.6519H138.48V30.209H141.769V14.6519Z" fill="#FAFAFA"/>
        <path d="M146.022 17.3637H150.785V30.209H154.036V17.3637H158.798V14.6519H146.022V17.3637Z" fill="#FAFAFA"/>
        <path d="M162.13 14.6519L167.805 24.7093V30.209H171.071V24.7093L176.746 14.6519H173.062L169.514 21.3518H169.362L165.815 14.6519H162.13Z" fill="#FAFAFA"/>
        <path d="M188.303 30.209H190.187V24.527H193.59C197.213 24.527 198.847 22.3241 198.847 19.5742C198.847 16.8244 197.213 14.6519 193.56 14.6519H188.303V30.209ZM190.187 22.8558V16.323H193.499C196.029 16.323 196.994 17.7055 196.994 19.5742C196.994 21.4429 196.029 22.8558 193.529 22.8558H190.187Z" fill="#FAFAFA"/>
        <path d="M203.071 30.209L204.636 25.8031H210.925L212.49 30.209H214.466L208.753 14.6519H206.808L201.096 30.209H203.071ZM205.228 24.1319L207.72 17.113H207.841L210.333 24.1319H205.228Z" fill="#FAFAFA"/>
        <path d="M223.828 30.209C228.569 30.209 231.242 27.2616 231.242 22.4C231.242 17.5688 228.569 14.6519 224.041 14.6519H219.027V30.209H223.828ZM220.911 28.5378V16.323H223.92C227.565 16.323 229.419 18.6323 229.419 22.4C229.419 26.1982 227.565 28.5378 223.706 28.5378H220.911Z" fill="#FAFAFA"/>
        <path d="M71.6883 44.2153H73.0338V39.3641H71.6883V44.2153ZM72.3642 38.7387C72.7653 38.7387 73.0938 38.4324 73.0938 38.0565C73.0938 37.6837 72.7653 37.3774 72.3642 37.3774C71.9663 37.3774 71.6378 37.6837 71.6378 38.0565C71.6378 38.4324 71.9663 38.7387 72.3642 38.7387ZM75.4571 41.4107C75.4602 40.7853 75.8329 40.4189 76.3761 40.4189C76.9162 40.4189 77.2415 40.7727 77.2383 41.3665V44.2153H78.5838V41.1264C78.5838 39.9957 77.9206 39.3008 76.9099 39.3008C76.1898 39.3008 75.6686 39.6546 75.4507 40.2199H75.3939V39.3641H74.1116V44.2153H75.4571V41.4107ZM81.7027 46.0345H83.0481V43.4383H83.0892C83.2755 43.8426 83.683 44.2942 84.4662 44.2942C85.5717 44.2942 86.4339 43.4194 86.4339 41.7959C86.4339 40.1283 85.5338 39.3008 84.4694 39.3008C83.6577 39.3008 83.2692 39.7841 83.0892 40.1789H83.0292V39.3641H81.7027V46.0345ZM83.0197 41.7896C83.0197 40.9243 83.3861 40.3716 84.0399 40.3716C84.7063 40.3716 85.06 40.9495 85.06 41.7896C85.06 42.6361 84.7 43.2235 84.0399 43.2235C83.3924 43.2235 83.0197 42.655 83.0197 41.7896ZM88.7143 44.3069C89.4311 44.3069 89.8954 43.9942 90.132 43.5425H90.1702V44.2153H91.4465V40.9432C91.4465 39.7873 90.4672 39.3008 89.3866 39.3008C88.2247 39.3008 87.4604 39.8567 87.2741 40.7411L88.5184 40.8422C88.61 40.52 88.8974 40.2831 89.3804 40.2831C89.8384 40.2831 90.1008 40.5137 90.1008 40.9116V40.9306C90.1008 41.2433 89.7691 41.2843 88.9258 41.3665C87.9657 41.4549 87.1035 41.777 87.1035 42.8604C87.1035 43.8205 87.7888 44.3069 88.7143 44.3069ZM89.0994 43.3783C88.6858 43.3783 88.3889 43.1856 88.3889 42.8161C88.3889 42.4371 88.7016 42.2508 89.175 42.1844C89.4693 42.1434 89.9487 42.0739 90.1106 41.9665V42.4813C90.1106 42.9899 89.6899 43.3783 89.0994 43.3783ZM92.4897 44.2153H93.8354V41.4707C93.8354 40.8737 94.2712 40.4631 94.8653 40.4631C95.0512 40.4631 95.3073 40.4948 95.4336 40.5358V39.3419C95.3136 39.3135 95.1463 39.2945 95.0103 39.2945C94.4668 39.2945 94.0222 39.6104 93.8452 40.2105H93.7945V39.3641H92.4897V44.2153ZM98.9529 39.3641H98.0404V38.2017H96.6948V39.3641H96.0313V40.3747H96.6948V42.9014C96.6886 43.852 97.336 44.3226 98.3117 44.2816C98.6594 44.269 98.9058 44.1994 99.041 44.1552L98.8293 43.154C98.7635 43.1667 98.6212 43.1983 98.4949 43.1983C98.2263 43.1983 98.0404 43.0972 98.0404 42.7246V40.3747H98.9529V39.3641ZM101.175 41.4107C101.178 40.7853 101.551 40.4189 102.093 40.4189C102.634 40.4189 102.959 40.7727 102.956 41.3665V44.2153H104.302V41.1264C104.302 39.9957 103.638 39.3008 102.628 39.3008C101.908 39.3008 101.386 39.6546 101.168 40.2199H101.112V39.3641H99.829V44.2153H101.175V41.4107ZM107.573 44.31C108.773 44.31 109.581 43.7257 109.771 42.8256L108.526 42.7435C108.391 43.113 108.043 43.3057 107.595 43.3057C106.922 43.3057 106.496 42.8604 106.496 42.1371V42.1339H109.799V41.7644C109.799 40.1157 108.801 39.3008 107.519 39.3008C106.091 39.3008 105.166 40.3147 105.166 41.8118C105.166 43.3499 106.079 44.31 107.573 44.31ZM106.496 41.3001C106.524 40.7474 106.944 40.3052 107.541 40.3052C108.125 40.3052 108.53 40.7221 108.533 41.3001H106.496ZM110.678 44.2153H112.023V41.4707C112.023 40.8737 112.458 40.4631 113.052 40.4631C113.239 40.4631 113.495 40.4948 113.621 40.5358V39.3419C113.501 39.3135 113.334 39.2945 113.197 39.2945C112.655 39.2945 112.209 39.6104 112.032 40.2105H111.982V39.3641H110.678V44.2153ZM118.353 40.7474C118.233 39.8536 117.513 39.3008 116.287 39.3008C115.047 39.3008 114.228 39.8757 114.232 40.8106C114.228 41.537 114.686 42.0076 115.634 42.1971L116.474 42.3644C116.897 42.4497 117.089 42.6045 117.096 42.8477C117.089 43.1351 116.777 43.3404 116.307 43.3404C115.827 43.3404 115.507 43.1351 115.425 42.7403L114.102 42.8098C114.228 43.7384 115.018 44.31 116.303 44.31C117.56 44.31 118.46 43.6689 118.464 42.7119C118.46 42.0107 118.003 41.5907 117.061 41.398L116.183 41.2211C115.731 41.1232 115.564 40.9685 115.568 40.7347C115.564 40.4442 115.892 40.2547 116.309 40.2547C116.777 40.2547 117.055 40.5105 117.121 40.8232L118.353 40.7474ZM120.656 41.4107C120.659 40.7853 121.042 40.4189 121.592 40.4189C122.138 40.4189 122.46 40.7695 122.457 41.3665V44.2153H123.802V41.1264C123.805 39.9894 123.136 39.3008 122.125 39.3008C121.389 39.3008 120.896 39.6483 120.675 40.2199H120.619V37.747H119.311V44.2153H120.656V41.4107ZM124.861 44.2153H126.207V39.3641H124.861V44.2153ZM125.537 38.7387C125.938 38.7387 126.266 38.4324 126.266 38.0565C126.266 37.6837 125.938 37.3774 125.537 37.3774C125.138 37.3774 124.81 37.6837 124.81 38.0565C124.81 38.4324 125.138 38.7387 125.537 38.7387ZM127.284 46.0345H128.629V43.4383H128.67C128.857 43.8426 129.264 44.2942 130.048 44.2942C131.153 44.2942 132.015 43.4194 132.015 41.7959C132.015 40.1283 131.115 39.3008 130.051 39.3008C129.239 39.3008 128.851 39.7841 128.67 40.1789H128.611V39.3641H127.284V46.0345ZM128.601 41.7896C128.601 40.9243 128.967 40.3716 129.621 40.3716C130.288 40.3716 130.641 40.9495 130.641 41.7896C130.641 42.6361 130.281 43.2235 129.621 43.2235C128.974 43.2235 128.601 42.655 128.601 41.7896ZM135.928 44.2153H137.349L138.183 41.1643H138.243L139.077 44.2153H140.501L141.818 39.3641H140.46L139.721 42.6045H139.68L138.884 39.3641H137.548L136.765 42.6234H136.72L135.969 39.3641H134.608L135.928 44.2153ZM142.536 44.2153H143.882V39.3641H142.536V44.2153ZM143.212 38.7387C143.613 38.7387 143.941 38.4324 143.941 38.0565C143.941 37.6837 143.613 37.3774 143.212 37.3774C142.813 37.3774 142.485 37.6837 142.485 38.0565C142.485 38.4324 142.813 38.7387 143.212 38.7387ZM147.54 39.3641H146.627V38.2017H145.281V39.3641H144.618V40.3747H145.281V42.9014C145.275 43.852 145.923 44.3226 146.898 44.2816C147.246 44.269 147.492 44.1994 147.628 44.1552L147.416 43.154C147.35 43.1667 147.208 43.1983 147.082 43.1983C146.813 43.1983 146.627 43.0972 146.627 42.7246V40.3747H147.54V39.3641ZM149.865 41.4107C149.869 40.7853 150.25 40.4189 150.8 40.4189C151.347 40.4189 151.669 40.7695 151.665 41.3665V44.2153H153.011V41.1264C153.015 39.9894 152.345 39.3008 151.334 39.3008C150.598 39.3008 150.105 39.6483 149.885 40.2199H149.828V37.747H148.52V44.2153H149.865V41.4107ZM158.447 44.2153C160.418 44.2153 161.612 42.9962 161.612 40.9748C161.612 38.9598 160.418 37.747 158.466 37.747H156.154V44.2153H158.447ZM157.521 43.0435V38.9187H158.393C159.606 38.9187 160.247 39.5378 160.247 40.9748C160.247 42.4182 159.606 43.0435 158.39 43.0435H157.521ZM163.374 44.2153L163.855 42.7403H166.188L166.669 44.2153H168.134L165.905 37.747H164.142L161.91 44.2153H163.374ZM164.202 41.6728L164.998 39.2251H165.048L165.844 41.6728H164.202ZM174.553 40.9811C174.553 38.865 173.239 37.6585 171.524 37.6585C169.799 37.6585 168.495 38.865 168.495 40.9811C168.495 43.0877 169.799 44.3037 171.524 44.3037C173.239 44.3037 174.553 43.0972 174.553 40.9811ZM173.167 40.9811C173.167 42.3518 172.516 43.094 171.524 43.094C170.53 43.094 169.882 42.3518 169.882 40.9811C169.882 39.6104 170.53 38.8682 171.524 38.8682C172.516 38.8682 173.167 39.6104 173.167 40.9811ZM177.624 37.747V44.2153H178.951V39.9894H179.005L180.678 44.1837H181.582L183.256 40.0052H183.309V44.2153H184.636V37.747H182.949L181.168 42.0928H181.092L179.311 37.747H177.624ZM187.121 44.3069C187.838 44.3069 188.302 43.9942 188.539 43.5425H188.577V44.2153H189.852V40.9432C189.852 39.7873 188.873 39.3008 187.794 39.3008C186.631 39.3008 185.867 39.8567 185.68 40.7411L186.925 40.8422C187.016 40.52 187.303 40.2831 187.787 40.2831C188.245 40.2831 188.507 40.5137 188.507 40.9116V40.9306C188.507 41.2433 188.176 41.2843 187.332 41.3665C186.372 41.4549 185.51 41.777 185.51 42.8604C185.51 43.8205 186.195 44.3069 187.121 44.3069ZM187.506 43.3783C187.093 43.3783 186.796 43.1856 186.796 42.8161C186.796 42.4371 187.108 42.2508 187.582 42.1844C187.875 42.1434 188.356 42.0739 188.517 41.9665V42.4813C188.517 42.9899 188.097 43.3783 187.506 43.3783ZM190.897 44.2153H192.242V42.674L192.605 42.2602L193.929 44.2153H195.505L193.613 41.4644L195.413 39.3641H193.869L192.314 41.2054H192.242V37.747H190.897V44.2153ZM198.084 44.31C199.284 44.31 200.093 43.7257 200.282 42.8256L199.038 42.7435C198.902 43.113 198.555 43.3057 198.106 43.3057C197.434 43.3057 197.007 42.8604 197.007 42.1371V42.1339H200.311V41.7644C200.311 40.1157 199.313 39.3008 198.03 39.3008C196.603 39.3008 195.677 40.3147 195.677 41.8118C195.677 43.3499 196.591 44.31 198.084 44.31ZM197.007 41.3001C197.035 40.7474 197.456 40.3052 198.053 40.3052C198.637 40.3052 199.041 40.7221 199.044 41.3001H197.007ZM201.189 44.2153H202.534V41.4707C202.534 40.8737 202.97 40.4631 203.564 40.4631C203.75 40.4631 204.006 40.4948 204.133 40.5358V39.3419C204.012 39.3135 203.845 39.2945 203.709 39.2945C203.166 39.2945 202.72 39.6104 202.544 40.2105H202.493V39.3641H201.189V44.2153Z" fill="#8795AC"/>
    </g>
    <defs>
        <linearGradient id="paint0_linear" x1="2.44476" y1="31.101" x2="7.3625" y2="26.202" gradientUnits="userSpaceOnUse">
            <stop stop-color="#4086FF"/>
            <stop offset="1" stop-color="#48D5FF"/>
        </linearGradient>
        <linearGradient id="paint1_linear" x1="12.224" y1="40.8801" x2="17.1364" y2="35.9758" gradientUnits="userSpaceOnUse">
            <stop stop-color="#4086FF"/>
            <stop offset="1" stop-color="#48D5FF"/>
        </linearGradient>
        <linearGradient id="paint2_linear" x1="22.003" y1="37.6204" x2="26.9207" y2="32.7215" gradientUnits="userSpaceOnUse">
            <stop stop-color="#4086FF"/>
            <stop offset="1" stop-color="#48D5FF"/>
        </linearGradient>
        <linearGradient id="paint3_linear" x1="28.5223" y1="31.101" x2="33.4118" y2="26.2115" gradientUnits="userSpaceOnUse">
            <stop stop-color="#E8BB41"/>
            <stop offset="1" stop-color="#F6DA5B"/>
        </linearGradient>
        <linearGradient id="paint4_linear" x1="35.0416" y1="24.5819" x2="39.9312" y2="19.6923" gradientUnits="userSpaceOnUse">
            <stop stop-color="#E8BB41"/>
            <stop offset="1" stop-color="#F6DA5B"/>
        </linearGradient>
        <linearGradient id="paint5_linear" x1="35.0416" y1="37.6204" x2="39.9312" y2="32.7309" gradientUnits="userSpaceOnUse">
            <stop stop-color="#E8BB41"/>
            <stop offset="1" stop-color="#F6DA5B"/>
        </linearGradient>
        <linearGradient id="paint6_linear" x1="41.5611" y1="44.1398" x2="52.97" y2="32.7309" gradientUnits="userSpaceOnUse">
            <stop stop-color="#E8BB41"/>
            <stop offset="1" stop-color="#F6DA5B"/>
        </linearGradient>
        <linearGradient id="paint7_linear" x1="8.96428" y1="24.5822" x2="20.468" y2="13.1807" gradientUnits="userSpaceOnUse">
            <stop stop-color="#4086FF"/>
            <stop offset="1" stop-color="#48D5FF"/>
        </linearGradient>
        <linearGradient id="paint8_linear" x1="22.003" y1="24.5819" x2="26.9207" y2="19.6829" gradientUnits="userSpaceOnUse">
            <stop stop-color="#4086FF"/>
            <stop offset="1" stop-color="#48D5FF"/>
        </linearGradient>
        <clipPath id="clip0">
            <rect width="231.163" height="56" fill="white"/>
        </clipPath>
    </defs>
</svg>
