<svg width="196" height="44" viewBox="0 0 196 44" fill="none" xmlns="http://www.w3.org/2000/svg">
    <path d="M0 43.7839L19.2089 8.33288L36.1735 0.904297L16.938 36.3554L0 43.7839Z" fill="url(#paint0_linear)"/>
    <path d="M19.1548 35.6949L33.7418 8.75635L42.0772 16.8723L27.6505 43.8637L19.1548 35.6949Z" fill="url(#paint1_linear)"/>
    <path d="M43.6814 17.6646L54.4746 21.5771L49.078 31.4114L35.9872 31.8609L43.6814 17.6646Z" fill="url(#paint2_linear)"/>
    <path d="M74.7142 34.6786H67.9186V15.7051H74.7647C76.6846 15.7051 78.3519 16.0801 79.7415 16.83C81.1309 17.5799 82.2172 18.6798 82.9498 20.0798C83.7076 21.5046 84.0613 23.1794 84.0613 25.1543C84.0613 27.1291 83.6823 28.829 82.9245 30.2539C82.1666 31.6788 81.1056 32.7537 79.6909 33.5286C78.3267 34.3036 76.6594 34.6786 74.7142 34.6786ZM71.9605 31.2288H74.5373C76.331 31.2288 77.6951 30.7539 78.6299 29.7789C79.5645 28.829 80.0193 27.2791 80.0193 25.1543C80.0193 23.0545 79.5645 21.5296 78.6299 20.5547C77.6951 19.6048 76.331 19.1298 74.5373 19.1298H71.9605V31.2288Z" fill="white"/>
    <path d="M87.0918 34.677H82.7467L89.3655 15.7285H94.5948L101.189 34.677H96.8432L95.4285 30.3523H88.5065L87.0918 34.677ZM89.5423 27.2276H94.418L92.0685 20.0532H91.917L89.5423 27.2276Z" fill="white"/>
    <path d="M117.813 25.2042C117.813 27.279 117.409 29.0288 116.626 30.4788C115.843 31.9286 114.756 33.0285 113.417 33.8035C112.053 34.5534 110.537 34.9533 108.844 34.9533C107.152 34.9533 105.611 34.5784 104.272 33.8035C102.908 33.0285 101.847 31.9286 101.064 30.4788C100.281 29.0288 99.8766 27.279 99.8766 25.2292C99.8766 23.1543 100.281 21.4045 101.064 19.9546C101.847 18.5047 102.908 17.4048 104.272 16.6299C105.636 15.8799 107.152 15.48 108.844 15.48C110.537 15.48 112.053 15.8549 113.417 16.6299C114.781 17.3798 115.843 18.5047 116.626 19.9546C117.434 21.3545 117.813 23.1293 117.813 25.2042ZM113.72 25.2042C113.72 23.2044 113.266 21.6544 112.382 20.6046C111.497 19.5546 110.31 19.0047 108.844 19.0047C107.38 19.0047 106.193 19.5296 105.308 20.6046C104.423 21.6794 103.969 23.2044 103.969 25.2042C103.969 27.2041 104.423 28.7539 105.308 29.8038C106.193 30.8537 107.38 31.4037 108.844 31.4037C110.31 31.4037 111.497 30.8787 112.382 29.8038C113.266 28.7289 113.72 27.2041 113.72 25.2042Z" fill="white"/>
    <path d="M123.243 15.7051H128.246L133.525 28.454H133.752L139.033 15.7051H144.01V34.6786H140.068V22.3295H139.917L134.965 34.5786H132.288L127.336 22.2795H127.185V34.6786H123.243V15.7051Z" fill="white"/>
    <path d="M149.896 34.9277C148.532 34.9277 147.395 34.5778 146.486 33.8528C145.576 33.1529 145.122 32.078 145.122 30.6781C145.122 29.6281 145.374 28.7782 145.88 28.1783C146.384 27.5783 147.042 27.1283 147.875 26.8534C148.684 26.5784 149.568 26.3784 150.528 26.3034C151.766 26.1784 152.675 26.0535 153.206 25.9035C153.736 25.7534 154.015 25.4785 154.015 25.0035V24.9535C154.015 24.3785 153.837 23.9037 153.458 23.6036C153.079 23.2787 152.574 23.1286 151.892 23.1286C151.185 23.1286 150.603 23.2787 150.175 23.6036C149.745 23.9037 149.467 24.3036 149.341 24.7786L145.652 24.4785C145.93 23.1786 146.612 22.1538 147.699 21.4038C148.784 20.6539 150.199 20.2539 151.917 20.2539C152.979 20.2539 153.989 20.4289 154.898 20.7539C155.833 21.0788 156.566 21.6038 157.147 22.3037C157.728 23.0037 158.006 23.9287 158.006 25.0535V34.6777H154.217V32.7029H154.115C153.762 33.3529 153.256 33.9028 152.549 34.3277C151.841 34.7277 150.958 34.9277 149.896 34.9277ZM151.033 32.2279C151.917 32.2279 152.624 31.978 153.181 31.478C153.736 30.978 154.015 30.3531 154.015 29.6031V28.1033C153.862 28.2033 153.61 28.3032 153.281 28.3782C152.953 28.4532 152.6 28.5283 152.245 28.5783C151.867 28.6283 151.539 28.6782 151.26 28.7282C150.553 28.8282 149.997 29.0282 149.568 29.3032C149.139 29.6031 148.937 30.0281 148.937 30.5781C148.937 31.128 149.139 31.528 149.543 31.803C149.922 32.078 150.427 32.2279 151.033 32.2279Z" fill="white"/>
    <path d="M159.521 34.6786V15.7051H163.512V25.8292H163.74L168.337 20.4297H172.91L167.58 26.5791L173.188 34.6536H168.514L164.574 28.929L163.487 30.1539V34.6786H159.521Z" fill="white"/>
    <path d="M178.948 34.9527C177.483 34.9527 176.22 34.6527 175.134 34.0527C174.072 33.4527 173.239 32.6028 172.683 31.5279C172.102 30.428 171.824 29.1281 171.824 27.6283C171.824 26.1783 172.102 24.8784 172.683 23.7786C173.264 22.6786 174.072 21.8038 175.108 21.2038C176.144 20.5788 177.382 20.2788 178.797 20.2788C180.059 20.2788 181.197 20.5538 182.233 21.0788C183.243 21.6037 184.051 22.4037 184.658 23.4786C185.264 24.5535 185.567 25.8784 185.567 27.5032V28.5782H175.791C175.791 29.6281 176.093 30.478 176.674 31.078C177.255 31.678 178.064 32.0029 179.049 32.0029C179.706 32.0029 180.287 31.8529 180.767 31.5779C181.247 31.3029 181.601 30.8779 181.803 30.3531L185.492 30.603C185.213 31.9279 184.506 32.9778 183.369 33.7778C182.207 34.5527 180.742 34.9527 178.948 34.9527ZM175.765 26.1283H181.803C181.803 25.2784 181.525 24.5785 180.969 24.0285C180.414 23.4786 179.731 23.2036 178.847 23.2036C177.963 23.2036 177.23 23.4786 176.674 24.0535C176.119 24.6285 175.816 25.3284 175.765 26.1283Z" fill="white"/>
    <path d="M186.551 34.6777V20.4539H190.416V22.9287H190.568C190.821 22.0538 191.276 21.3788 191.882 20.9289C192.488 20.4789 193.22 20.2539 194.004 20.2539C194.458 20.2539 194.863 20.3039 195.267 20.4039V23.9037C195.09 23.8537 194.812 23.8036 194.484 23.7536C194.156 23.7036 193.852 23.7036 193.574 23.7036C192.69 23.7036 191.957 23.9786 191.402 24.5286C190.821 25.0785 190.542 25.7784 190.542 26.6534V34.6777H186.551Z" fill="white"/>
    <defs>
        <linearGradient id="paint0_linear" x1="0" y1="22.3441" x2="36.1735" y2="22.3441" gradientUnits="userSpaceOnUse">
            <stop stop-color="#4086FF"/>
            <stop offset="1" stop-color="#48D4FF"/>
        </linearGradient>
        <linearGradient id="paint1_linear" x1="19.1548" y1="26.31" x2="42.0772" y2="26.31" gradientUnits="userSpaceOnUse">
            <stop stop-color="#4086FF"/>
            <stop offset="1" stop-color="#48D4FF"/>
        </linearGradient>
        <linearGradient id="paint2_linear" x1="35.9872" y1="24.7627" x2="54.4746" y2="24.7627" gradientUnits="userSpaceOnUse">
            <stop stop-color="#4086FF"/>
            <stop offset="1" stop-color="#48D4FF"/>
        </linearGradient>
    </defs>
</svg>
