<svg width="262" height="60" viewBox="0 0 262 60" fill="none" xmlns="http://www.w3.org/2000/svg">
<path d="M19.9989 47.4909C27.5371 47.4909 33.6481 41.3876 33.6481 33.8588C33.6481 26.3299 27.5371 20.2266 19.9989 20.2266C12.4606 20.2266 6.34961 26.3299 6.34961 33.8588C6.34961 41.3876 12.4606 47.4909 19.9989 47.4909Z" fill="url(#paint0_linear_1241_2769)"/>
<path d="M19.9989 47.4909C27.5371 47.4909 33.6481 41.3876 33.6481 33.8588C33.6481 26.3299 27.5371 20.2266 19.9989 20.2266C12.4606 20.2266 6.34961 26.3299 6.34961 33.8588C6.34961 41.3876 12.4606 47.4909 19.9989 47.4909Z" fill="url(#paint1_linear_1241_2769)"/>
<path d="M19.9989 47.4909C27.5371 47.4909 33.6481 41.3876 33.6481 33.8588C33.6481 26.3299 27.5371 20.2266 19.9989 20.2266C12.4606 20.2266 6.34961 26.3299 6.34961 33.8588C6.34961 41.3876 12.4606 47.4909 19.9989 47.4909Z" fill="url(#paint2_linear_1241_2769)"/>
<path d="M19.9989 47.4909C27.5371 47.4909 33.6481 41.3876 33.6481 33.8588C33.6481 26.3299 27.5371 20.2266 19.9989 20.2266C12.4606 20.2266 6.34961 26.3299 6.34961 33.8588C6.34961 41.3876 12.4606 47.4909 19.9989 47.4909Z" fill="url(#paint3_linear_1241_2769)"/>
<path d="M33.6483 33.7886C32.4594 28.8404 28.341 29.2446 26.2327 37.5487C24.7496 43.3909 20.8518 48.7677 13.9877 46.1099C10.0164 44.1625 7.13596 40.3412 6.48633 35.8095C11.0759 37.8339 17.2926 39.0529 21.7052 33.125C26.2404 27.0255 30.1465 22.2737 32.454 28.3648L32.729 28.9262C33.3174 30.4327 33.6361 32.0739 33.6483 33.7886Z" fill="url(#paint4_linear_1241_2769)"/>
<path opacity="0.15" d="M8.60237 41.3832C7.52749 39.8581 6.57204 36.9984 6.43555 35.3775L11.8782 35.6846L23.6677 28.2287L30.117 24.8164C30.8393 25.4647 32.3964 27.2664 32.8468 29.2865C27.8819 19.2032 15.5935 51.3028 8.60237 41.3832Z" fill="url(#paint5_linear_1241_2769)"/>
<path d="M33.6491 33.8359C33.6491 41.3809 27.5345 47.4904 19.9985 47.4904C17.8418 47.4904 15.8077 46.9874 13.9941 46.0919C20.8562 48.7541 24.7529 43.3683 26.2356 37.5164C28.3432 29.1985 32.4482 28.7937 33.6491 33.7501C33.6491 33.7869 33.6491 33.8114 33.6491 33.8359Z" fill="url(#paint6_linear_1241_2769)"/>
<path d="M33.6491 33.8359C33.6491 41.3809 27.5345 47.4904 19.9985 47.4904C17.8418 47.4904 15.8077 46.9874 13.9941 46.0919C20.8562 48.7541 24.7529 43.3683 26.2356 37.5164C28.3432 29.1985 32.4482 28.7937 33.6491 33.7501C33.6491 33.7869 33.6491 33.8114 33.6491 33.8359Z" fill="url(#paint7_linear_1241_2769)" fill-opacity="0.2"/>
<mask id="mask0_1241_2769" style="mask-type:alpha" maskUnits="userSpaceOnUse" x="21" y="29" width="13" height="17">
<path d="M33.6301 33.7738C28.3922 27.3074 28.3069 41.6392 21.0898 45.7681L22.2842 40.9908L26.3107 32.0676L32.0092 29.5596L33.6301 31.0439V33.7738Z" fill="black"/>
</mask>
<g mask="url(#mask0_1241_2769)">
<path d="M33.6452 33.8369C33.6452 41.3819 27.5306 47.4914 19.9945 47.4914C17.8379 47.4914 15.8038 46.9884 13.9902 46.0928C20.8523 48.755 24.749 43.3693 26.2317 37.5174C28.3393 29.1995 32.4443 28.7947 33.6452 33.751C33.6452 33.7878 33.6452 33.8124 33.6452 33.8369Z" fill="url(#paint8_linear_1241_2769)"/>
<path d="M33.6452 33.8369C33.6452 41.3819 27.5306 47.4914 19.9945 47.4914C17.8379 47.4914 15.8038 46.9884 13.9902 46.0928C20.8523 48.755 24.749 43.3693 26.2317 37.5174C28.3393 29.1995 32.4443 28.7947 33.6452 33.751C33.6452 33.7878 33.6452 33.8124 33.6452 33.8369Z" fill="url(#paint9_linear_1241_2769)" fill-opacity="0.2"/>
</g>
<g filter="url(#filter0_d_1241_2769)">
<path d="M32.7268 28.9169C27.9325 17.718 14.4027 52.6089 6.48639 35.7974C6.1187 33.1652 6.35157 29.4556 8.96213 25.8195C8.96213 25.8195 11.8423 35.981 20.0662 29.8229C26.6968 24.8523 28.1675 24.4238 28.8906 24.1544L29.197 23.7749C30.7413 25.1828 32.1126 26.7948 32.7268 28.9169Z" fill="url(#paint10_linear_1241_2769)"/>
</g>
<path d="M30.7847 25.3449C25.4273 22.6833 10.089 45.324 7.22266 29.0644C7.54683 28.126 8.0928 27.1023 8.84351 25.9592C9.45514 25.0278 18.9667 22.5923 23.67 21.5061C24.6084 21.4492 27.4747 21.5061 30.7847 25.3449Z" fill="url(#paint11_linear_1241_2769)"/>
<mask id="mask1_1241_2769" style="mask-type:alpha" maskUnits="userSpaceOnUse" x="6" y="23" width="27" height="18">
<path d="M32.7307 28.9179C27.9364 17.719 14.4066 52.6099 6.49029 35.7983C6.12261 33.1661 6.35548 29.4566 8.96603 25.8204C8.96603 25.8204 11.8462 35.982 20.0701 29.8238C26.7007 24.8532 28.1714 24.4247 28.8945 24.1554L29.2009 23.7759C30.7452 25.1838 32.1165 26.7958 32.7307 28.9179Z" fill="url(#paint12_linear_1241_2769)"/>
</mask>
<g mask="url(#mask1_1241_2769)">
<g filter="url(#filter1_f_1241_2769)">
<path d="M19.8836 34.064L14.4922 38.0734L15.004 40.4109L19.3718 37.3057L31.4855 26.8299L30.0182 25.5161L25.8381 27.8877L19.8836 34.064Z" fill="url(#paint13_linear_1241_2769)"/>
</g>
</g>
<path d="M29.1643 23.7778L29.4193 24.0099C28.7099 24.2663 26.6812 24.8403 20.0635 29.7984C11.8679 35.941 6.0209 30.8486 8.38173 26.7087C9.70281 24.3884 12.1789 22.3979 14.4052 21.4209C14.4052 21.4209 14.3388 28.2352 20.4305 24.9868C21.8208 24.2436 25.872 22.6665 27.4151 22.4101C28.0267 22.8253 28.6139 23.2771 29.1643 23.7778Z" fill="url(#paint14_linear_1241_2769)"/>
<path d="M11.2309 23.4172C11.9134 22.8712 13.0565 21.9499 14.3702 21.4551C14.3702 21.7008 14.5977 22.8655 14.7114 23.4172H21.1778C22.8726 22.8428 26.2928 21.7178 26.4157 21.8134C26.5692 21.9328 27.6612 22.53 28.3436 23.093C25.0678 23.4172 9.49061 32.7498 11.2309 23.4172Z" fill="url(#paint15_linear_1241_2769)"/>
<mask id="mask2_1241_2769" style="mask-type:alpha" maskUnits="userSpaceOnUse" x="7" y="21" width="23" height="12">
<path d="M29.1624 23.7773L29.4174 24.0094C28.7079 24.2658 26.6792 24.8398 20.0616 29.7979C11.866 35.9406 6.01895 30.8481 8.37977 26.7082C9.70086 24.3879 12.1769 22.3974 14.4032 21.4204C14.4032 21.4204 14.3369 28.2347 20.4286 24.9863C21.8188 24.2432 25.87 22.666 27.4132 22.4096C28.0248 22.8248 28.6119 23.2766 29.1624 23.7773Z" fill="url(#paint16_linear_1241_2769)"/>
</mask>
<g mask="url(#mask2_1241_2769)">
<g filter="url(#filter2_f_1241_2769)">
<path d="M21.5853 26.5557L11.502 31.0429L12.7133 32.6637H19.5721L25.936 27.7329L31.7199 23.3822L30.8668 23.0239L26.7891 23.9111L21.5853 26.5557Z" fill="url(#paint17_linear_1241_2769)"/>
</g>
</g>
<path d="M27.3987 22.4259L27.8147 22.707C26.273 22.8536 21.8315 24.5398 20.2531 25.2607C13.9763 28.1321 10.8317 25.2362 13.7805 22.0349C14.0864 21.705 14.3678 21.4362 14.3678 21.4362C16.0685 20.6542 17.9651 20.2266 19.9717 20.2266C22.7125 20.2266 25.2575 21.033 27.3987 22.4259Z" fill="url(#paint18_linear_1241_2769)"/>
<mask id="mask3_1241_2769" style="mask-type:alpha" maskUnits="userSpaceOnUse" x="12" y="10" width="16" height="17">
<path d="M27.3968 22.4259L27.8128 22.7069C26.2711 22.8536 21.8296 24.5397 20.2512 25.2607C13.9743 28.1321 10.8297 25.2362 13.7785 22.0349C14.0844 21.705 14.3658 21.4362 14.3658 21.4362C8.55027 8.35169 20.3294 10.0749 22.336 10.0749C25.0768 10.0749 25.2555 21.033 27.3968 22.4259Z" fill="url(#paint19_linear_1241_2769)"/>
</mask>
<g mask="url(#mask3_1241_2769)">
<g filter="url(#filter3_f_1241_2769)">
<ellipse cx="19.9475" cy="26.5903" rx="6.63695" ry="4.45307" fill="#298942"/>
</g>
<path d="M14.8177 14.3396L14.8125 17.0687C14.8125 17.0687 14.8334 17.5524 15.0523 17.7714C15.2765 17.9903 15.2139 14.3396 15.2139 14.3396L14.8594 13.9933C14.8646 13.9883 14.8438 14.0901 14.8177 14.3396Z" fill="#339966"/>
<path d="M22.1827 17.2686V29.9282C21.8828 29.8725 21.5881 29.8015 21.2984 29.7153C20.6784 29.5378 20.0787 29.3097 19.5044 29.0309C19.2554 28.9092 19.0063 28.7774 18.7675 28.6354C18.6099 28.5441 18.4524 28.4478 18.2999 28.3464C18.1729 28.2653 18.0509 28.1791 17.9289 28.0878C17.7409 27.951 17.5528 27.809 17.3699 27.6569C17.2174 27.5352 17.07 27.4034 16.9277 27.2716V17.2686H22.1827Z" fill="#5CDA7D"/>
<path d="M21.6361 17.2686V29.8259C21.595 29.8157 21.554 29.8056 21.513 29.7954C21.4976 29.7751 21.4822 29.7548 21.4669 29.7345C21.3489 29.5569 21.2361 29.3284 21.1285 29.0493C21.0823 28.9275 21.0362 28.7955 20.99 28.6534C20.9593 28.562 20.9285 28.4656 20.9028 28.3641C20.8772 28.2829 20.8567 28.1966 20.8311 28.1052C20.7952 27.9682 20.7593 27.826 20.7285 27.6738C20.7029 27.5519 20.6721 27.42 20.6465 27.288V17.2686H21.6361Z" fill="#9AFDB4"/>
<path d="M18.2585 18.2252V28.6316C18.1431 28.5454 18.0326 28.4593 17.9222 28.3631C17.8319 28.2871 17.7415 28.2111 17.6562 28.1249C17.5206 27.9983 17.3851 27.8665 17.2546 27.7298C17.1442 27.6183 17.0387 27.4967 16.9383 27.3802V19.9021C16.8329 15.9554 17.5307 18.2252 18.2585 18.2252Z" fill="#339966"/>
<path d="M24.2977 14.5272V16.8345C24.2977 17.6661 23.6322 18.3558 22.7939 18.3609C22.7889 18.3609 22.7838 18.3609 22.7787 18.3609H16.2963C16.2913 18.3609 16.2862 18.3609 16.2811 18.3609C15.4479 18.3558 14.7824 17.874 14.7773 16.8345V14.5272C14.7773 13.9744 14.8485 13.6245 15.5089 13.158L15.8848 13.0718H22.8244C23.6271 13.0718 24.2875 13.7107 24.2926 14.5119C24.2977 14.517 24.2977 14.5221 24.2977 14.5272Z" fill="#5CDA7D"/>
<path d="M19.998 17.7808H21.5266L21.9113 17.2424C22.2499 16.7701 22.3114 16.1556 22.0703 15.6325L21.8857 15.2262C21.7421 14.9113 21.6446 14.5762 21.6036 14.2359L21.5266 13.6519H19.998V14.1343C19.998 14.5457 20.2699 14.9113 20.67 15.0282C20.6751 15.0282 20.6803 15.0332 20.6854 15.0332C20.9162 15.1043 21.0958 15.2872 21.1573 15.5208L21.224 15.7849C21.2496 15.8814 21.2958 16.1658 21.3317 16.2572C21.4548 16.5619 20.9932 16.7701 20.7316 17.0393L19.998 17.7808Z" fill="#9AFDB4"/>
<path d="M22.8259 22.8402L22.5472 23.1906C22.3901 23.3887 22.3901 23.663 22.5472 23.8611L22.8259 24.2115L22.5371 24.5772C22.3901 24.7651 22.3901 25.0343 22.5371 25.2222L22.8259 25.5879L22.4914 26.0095C22.3698 26.1669 22.3698 26.3853 22.4914 26.5427L22.8259 26.9643L22.5117 27.3655C22.38 27.5331 22.38 27.7719 22.5117 27.9395L22.8259 28.3407L22.5066 28.747C22.3749 28.9095 22.3749 29.1432 22.5066 29.3057L22.8259 29.712L22.5979 29.9964C22.4509 29.9761 22.309 29.9507 22.1672 29.9203C21.8682 29.8644 21.5743 29.7933 21.2855 29.7069C20.6673 29.5292 20.0694 29.3006 19.4968 29.0213C19.2486 28.8994 19.0003 28.7673 18.7621 28.6251C18.6051 28.5337 18.448 28.4372 18.296 28.3356C18.1693 28.2544 18.0477 28.168 17.9261 28.0766C17.7386 27.9395 17.5511 27.7973 17.3738 27.6449C17.2218 27.523 17.0748 27.3909 16.9329 27.2589C16.8265 27.1624 16.7201 27.0608 16.6188 26.9541C16.5529 26.8881 16.4921 26.8272 16.4313 26.7611L16.8215 26.2685L16.2793 25.5828L16.8215 24.8972L16.2793 24.2115L16.8215 23.5258L16.2793 22.8402L16.8215 22.1545L16.2793 21.4689C16.6239 21.0321 17.1458 20.7832 17.6981 20.7832H21.7517C22.0912 20.7832 22.4104 20.9407 22.6232 21.2048L22.8309 21.4689L22.5573 21.8142C22.4002 22.0174 22.4002 22.2967 22.5573 22.4999L22.8259 22.8402Z" fill="#5CDA7D"/>
<path d="M18.2584 22.1654L17.7196 22.8514L18.2584 23.5375L17.7196 24.2235L18.2584 24.9095L17.7196 25.5955L18.2584 26.2816L17.7196 26.9676L18.2584 27.6536L17.921 28.0856C17.7347 27.9483 17.5484 27.8061 17.3671 27.6536C17.216 27.5317 17.0699 27.3995 16.9289 27.2674C16.8232 27.1709 16.7174 27.0692 16.6167 26.9625C16.5512 26.8964 16.4908 26.8355 16.4304 26.7694L16.5815 26.5763C16.7174 26.3984 16.7174 26.1545 16.5815 25.9767L16.2793 25.5905L16.5764 25.2093C16.7174 25.0315 16.7174 24.7774 16.5764 24.5944L16.2793 24.2133L16.5815 23.8271C16.7174 23.6493 16.7174 23.4053 16.5815 23.2275L16.2793 22.8413L16.5815 22.4551C16.7174 22.2772 16.7174 22.0333 16.5815 21.8554L16.2793 21.4692C16.6217 21.0322 17.1405 20.7832 17.6894 20.7832H18.2584L17.7196 21.4692L18.2584 22.1654Z" fill="#339966"/>
<path d="M22.8309 21.4663L22.623 21.7292C22.4101 21.9971 22.0906 22.1488 21.7508 22.1488H16.8219L16.2793 21.4663H22.8309Z" fill="#122C1C"/>
<path d="M22.8309 22.8647L22.8056 22.9099C22.5776 23.3013 22.157 23.5472 21.6959 23.5472H16.8215L16.2793 22.8698H22.8309V22.8647Z" fill="#122C1C"/>
<path d="M22.8309 24.23L22.2903 24.9124H16.82L16.2793 24.23H22.8309Z" fill="#122C1C"/>
<path d="M22.7626 25.5947L22.2219 26.2772H16.7516L16.2109 25.5947H22.7626Z" fill="#122C1C"/>
<path d="M14.7824 13.9048L18.019 13.686V17.8723H15.3363C15.0162 18.1216 14.7773 17.2619 14.7773 17.0839L14.7824 13.9048Z" fill="#339966"/>
<path d="M22.3226 17.7805H17.918V13.5151H22.7646C23.3488 13.5151 23.8213 13.9885 23.8213 14.5738V16.2841C23.8162 17.1087 23.1456 17.7805 22.3226 17.7805Z" fill="#5CDA7D"/>
<path d="M24.2986 14.3341H14.9422H14.7441C14.7441 12.7351 15.8413 12.9412 16.334 12.9463L22.8103 12.9714C23.3589 12.9714 24.1412 13.1977 24.2986 14.3341Z" fill="#122C1C"/>
<path opacity="0.67" d="M24.0696 13.6605C23.6938 12.805 22.7797 12.9872 22.0179 12.972C20.5198 12.9417 19.7683 12.9569 18.2651 12.9569C15.8935 12.9569 15.392 12.7984 14.9794 13.377C14.5669 13.9557 14.8289 15.733 14.7778 17.0638C14.7879 17.6409 15.2043 17.9851 15.2043 17.9851C15.2043 17.9851 20.4437 15.4324 24.2981 14.4908C24.2829 14.1516 24.2422 14.0503 24.0696 13.6605Z" fill="#3F3E43"/>
<path d="M22.5576 14.334H21.3633V18.3605H22.5576V14.334Z" fill="#9AFDB4"/>
<path d="M23.99 17.7808C23.5987 18.2209 23.3751 18.4632 22.557 18.4632H16.4487C15.5492 18.4632 15.4069 18.2209 15.0156 17.7808H23.99Z" fill="#122C1C"/>
</g>
<mask id="mask4_1241_2769" style="mask-type:alpha" maskUnits="userSpaceOnUse" x="13" y="30" width="21" height="18">
<path d="M33.6491 33.8369C33.6491 41.3819 27.5345 47.4914 19.9985 47.4914C17.8418 47.4914 15.8077 46.9884 13.9941 46.0928C20.8562 48.755 24.7529 43.3693 26.2356 37.5174C28.3432 29.1995 32.4482 28.7947 33.6491 33.751C33.6491 33.7878 33.6491 33.8124 33.6491 33.8369Z" fill="url(#paint20_linear_1241_2769)"/>
<path d="M33.6491 33.8369C33.6491 41.3819 27.5345 47.4914 19.9985 47.4914C17.8418 47.4914 15.8077 46.9884 13.9941 46.0928C20.8562 48.755 24.7529 43.3693 26.2356 37.5174C28.3432 29.1995 32.4482 28.7947 33.6491 33.751C33.6491 33.7878 33.6491 33.8124 33.6491 33.8369Z" fill="url(#paint21_linear_1241_2769)" fill-opacity="0.2"/>
</mask>
<g mask="url(#mask4_1241_2769)">
<path opacity="0.06" d="M26.4331 37.613C23.7714 46.6898 18.5165 48.0717 14.0293 46.1438L15.4966 44.6253L19.3525 41.2471L24.9316 34.0642L27.7809 29.4917L33.633 29.8841C34.1449 32.6367 34.6312 37.341 33.633 33.7742C32.4728 29.6282 29.0947 28.5363 26.4331 37.613Z" fill="black"/>
</g>
<mask id="mask5_1241_2769" style="mask-type:alpha" maskUnits="userSpaceOnUse" x="6" y="25" width="28" height="22">
<path d="M33.6503 33.7891C32.4613 28.8409 28.3429 29.2451 26.2347 37.5492C24.7515 43.3914 20.8537 48.7682 13.9897 46.1104C10.0184 44.163 7.13791 40.3417 6.48828 35.81C11.0778 37.8344 17.2946 39.0534 21.7072 33.1254C26.2424 27.026 30.1485 22.2742 32.456 28.3653L32.731 28.9267C33.3193 30.4332 33.638 32.0744 33.6503 33.7891Z" fill="url(#paint22_linear_1241_2769)"/>
</mask>
<g mask="url(#mask5_1241_2769)">
<g filter="url(#filter4_f_1241_2769)">
<path d="M24.4377 36.7421L22.1855 44.7269H24.4377L27.6452 40.2909L29.8974 32.835H33.6339L31.8083 29.6274H28.686L24.4377 36.7421Z" fill="url(#paint23_linear_1241_2769)"/>
</g>
</g>
<g filter="url(#filter5_d_1241_2769)">
<path d="M50 25V26.6702H57.4983V35H59.1684V26.6702H66.6667V25H50Z" fill="white"/>
<path d="M68.7701 25V35H85.4368V33.3368H70.4333V30.8351H85.4368V29.1649H70.4333V26.6702H85.4368V25H68.7701Z" fill="white"/>
<path d="M89.2034 29.1649V26.6702H101.286C101.631 26.6702 101.926 26.7913 102.173 27.0335C102.416 27.2805 102.537 27.574 102.537 27.914C102.537 28.2588 102.416 28.5546 102.173 28.8015C101.926 29.0438 101.631 29.1649 101.286 29.1649H89.2034ZM102.614 30.5136C103.093 30.2667 103.478 29.915 103.767 29.4584C104.06 28.9879 104.207 28.4731 104.207 27.914C104.207 27.1127 103.92 26.4279 103.347 25.8595C102.779 25.2865 102.092 25 101.286 25H87.5402V35H89.2034V30.8351H99.2034C100.126 30.8351 100.911 31.1612 101.558 31.8134C102.211 32.4656 102.537 33.2506 102.537 34.1684V35H104.207V34.1684C104.207 32.7242 103.676 31.5059 102.614 30.5136Z" fill="white"/>
<path d="M107.973 29.1649V26.6702H120.056C120.401 26.6702 120.696 26.7913 120.943 27.0335C121.186 27.2805 121.307 27.574 121.307 27.914C121.307 28.2588 121.186 28.5546 120.943 28.8015C120.696 29.0438 120.401 29.1649 120.056 29.1649H107.973ZM121.384 30.5136C121.863 30.2667 122.248 29.915 122.537 29.4584C122.83 28.9879 122.977 28.4731 122.977 27.914C122.977 27.1127 122.69 26.4279 122.117 25.8595C121.549 25.2865 120.862 25 120.056 25H106.31V35H107.973V30.8351H117.973C118.896 30.8351 119.681 31.1612 120.328 31.8134C120.981 32.4656 121.307 33.2506 121.307 34.1684V35H122.977V34.1684C122.977 32.7242 122.446 31.5059 121.384 30.5136Z" fill="white"/>
<path d="M133.878 25L125.08 35H127.303L128.77 33.3368H140.475L141.943 35H144.165L135.367 25H133.878ZM134.619 26.6771L139.015 31.6667H130.231L134.619 26.6771Z" fill="white"/>
<path d="M146.268 25V35H147.932V30.8351H162.935V29.1649H147.932V26.6702H162.935V25H146.268Z" fill="white"/>
<path d="M167.952 26.6702C167.608 26.6702 167.314 26.7913 167.072 27.0335C166.825 27.2805 166.702 27.574 166.702 27.914V32.086C166.702 32.4307 166.825 32.7242 167.072 32.9665C167.314 33.2134 167.608 33.3368 167.952 33.3368H178.784C179.129 33.3368 179.425 33.2134 179.672 32.9665C179.914 32.7242 180.035 32.4307 180.035 32.086V27.914C180.035 27.574 179.914 27.2805 179.672 27.0335C179.425 26.7913 179.129 26.6702 178.784 26.6702H167.952ZM167.952 35C167.151 35 166.464 34.7158 165.891 34.1474C165.323 33.5744 165.038 32.8873 165.038 32.086V27.914C165.038 27.1127 165.323 26.4279 165.891 25.8595C166.464 25.2865 167.151 25 167.952 25H178.784C179.59 25 180.277 25.2865 180.846 25.8595C181.419 26.4279 181.705 27.1127 181.705 27.914V32.086C181.705 32.8873 181.419 33.5744 180.846 34.1474C180.277 34.7158 179.59 35 178.784 35H167.952Z" fill="white"/>
<path d="M185.472 29.1649V26.6702H197.554C197.899 26.6702 198.195 26.7913 198.442 27.0335C198.684 27.2805 198.805 27.574 198.805 27.914C198.805 28.2588 198.684 28.5546 198.442 28.8015C198.195 29.0438 197.899 29.1649 197.554 29.1649H185.472ZM198.882 30.5136C199.362 30.2667 199.746 29.915 200.035 29.4584C200.328 28.9879 200.475 28.4731 200.475 27.914C200.475 27.1127 200.189 26.4279 199.616 25.8595C199.047 25.2865 198.36 25 197.554 25H183.809V35H185.472V30.8351H195.472C196.394 30.8351 197.179 31.1612 197.827 31.8134C198.479 32.4656 198.805 33.2506 198.805 34.1684V35H200.475V34.1684C200.475 32.7242 199.944 31.5059 198.882 30.5136Z" fill="white"/>
<path d="M218.463 25L211.328 31.3802L204.193 25H202.579V35H204.242V27.2781L211.328 33.6164L218.407 27.2781V35H220.077V25H218.463Z" fill="white"/>
<path d="M222.173 25V35H238.84V33.3368H223.836V30.8351H238.84V29.1649H223.836V26.6702H238.84V25H222.173Z" fill="white"/>
<path d="M242.607 29.1649V26.6702H254.689C255.034 26.6702 255.33 26.7913 255.577 27.0335C255.819 27.2805 255.94 27.574 255.94 27.914C255.94 28.2588 255.819 28.5546 255.577 28.8015C255.33 29.0438 255.034 29.1649 254.689 29.1649H242.607ZM256.017 30.5136C256.497 30.2667 256.881 29.915 257.17 29.4584C257.463 28.9879 257.61 28.4731 257.61 27.914C257.61 27.1127 257.324 26.4279 256.751 25.8595C256.182 25.2865 255.495 25 254.689 25H240.943V35H242.607V30.8351H252.607C253.529 30.8351 254.314 31.1612 254.962 31.8134C255.614 32.4656 255.94 33.2506 255.94 34.1684V35H257.61V34.1684C257.61 32.7242 257.079 31.5059 256.017 30.5136Z" fill="white"/>
</g>
<defs>
<filter id="filter0_d_1241_2769" x="6.34961" y="23.7749" width="26.377" height="16.9264" filterUnits="userSpaceOnUse" color-interpolation-filters="sRGB">
<feFlood flood-opacity="0" result="BackgroundImageFix"/>
<feColorMatrix in="SourceAlpha" type="matrix" values="0 0 0 0 0 0 0 0 0 0 0 0 0 0 0 0 0 0 127 0" result="hardAlpha"/>
<feOffset dy="0.238862"/>
<feComposite in2="hardAlpha" operator="out"/>
<feColorMatrix type="matrix" values="0 0 0 0 0 0 0 0 0 0 0 0 0 0 0 0 0 0 0.05 0"/>
<feBlend mode="normal" in2="BackgroundImageFix" result="effect1_dropShadow_1241_2769"/>
<feBlend mode="normal" in="SourceGraphic" in2="effect1_dropShadow_1241_2769" result="shape"/>
</filter>
<filter id="filter1_f_1241_2769" x="11.0799" y="22.1038" width="23.8188" height="21.7192" filterUnits="userSpaceOnUse" color-interpolation-filters="sRGB">
<feFlood flood-opacity="0" result="BackgroundImageFix"/>
<feBlend mode="normal" in="SourceGraphic" in2="BackgroundImageFix" result="shape"/>
<feGaussianBlur stdDeviation="1.70616" result="effect1_foregroundBlur_1241_2769"/>
</filter>
<filter id="filter2_f_1241_2769" x="8.08964" y="19.6116" width="27.0434" height="16.4643" filterUnits="userSpaceOnUse" color-interpolation-filters="sRGB">
<feFlood flood-opacity="0" result="BackgroundImageFix"/>
<feBlend mode="normal" in="SourceGraphic" in2="BackgroundImageFix" result="shape"/>
<feGaussianBlur stdDeviation="1.70616" result="effect1_foregroundBlur_1241_2769"/>
</filter>
<filter id="filter3_f_1241_2769" x="10.6148" y="19.4415" width="18.6649" height="14.2977" filterUnits="userSpaceOnUse" color-interpolation-filters="sRGB">
<feFlood flood-opacity="0" result="BackgroundImageFix"/>
<feBlend mode="normal" in="SourceGraphic" in2="BackgroundImageFix" result="shape"/>
<feGaussianBlur stdDeviation="1.34786" result="effect1_foregroundBlur_1241_2769"/>
</filter>
<filter id="filter4_f_1241_2769" x="18.7732" y="26.2151" width="18.2738" height="21.9242" filterUnits="userSpaceOnUse" color-interpolation-filters="sRGB">
<feFlood flood-opacity="0" result="BackgroundImageFix"/>
<feBlend mode="normal" in="SourceGraphic" in2="BackgroundImageFix" result="shape"/>
<feGaussianBlur stdDeviation="1.70616" result="effect1_foregroundBlur_1241_2769"/>
</filter>
<filter id="filter5_d_1241_2769" x="45.7873" y="20.7873" width="216.035" height="18.4254" filterUnits="userSpaceOnUse" color-interpolation-filters="sRGB">
<feFlood flood-opacity="0" result="BackgroundImageFix"/>
<feColorMatrix in="SourceAlpha" type="matrix" values="0 0 0 0 0 0 0 0 0 0 0 0 0 0 0 0 0 0 127 0" result="hardAlpha"/>
<feOffset/>
<feGaussianBlur stdDeviation="2.10636"/>
<feComposite in2="hardAlpha" operator="out"/>
<feColorMatrix type="matrix" values="0 0 0 0 0.489844 0 0 0 0 0.646322 0 0 0 0 0.6875 0 0 0 0.73 0"/>
<feBlend mode="normal" in2="BackgroundImageFix" result="effect1_dropShadow_1241_2769"/>
<feBlend mode="normal" in="SourceGraphic" in2="effect1_dropShadow_1241_2769" result="shape"/>
</filter>
<linearGradient id="paint0_linear_1241_2769" x1="17.3282" y1="24.0218" x2="22.3593" y2="42.6277" gradientUnits="userSpaceOnUse">
<stop stop-color="#5BFC85"/>
<stop offset="0.098061" stop-color="#63E171"/>
<stop offset="0.27" stop-color="#6FB854"/>
<stop offset="0.4382" stop-color="#79983C"/>
<stop offset="0.5996" stop-color="#7F812C"/>
<stop offset="0.7511" stop-color="#847321"/>
<stop offset="0.8828" stop-color="#856E1E"/>
</linearGradient>
<linearGradient id="paint1_linear_1241_2769" x1="17.3282" y1="24.0218" x2="22.3593" y2="42.6277" gradientUnits="userSpaceOnUse">
<stop stop-color="#5BFC85"/>
<stop offset="0.098061" stop-color="#63E171"/>
<stop offset="0.27" stop-color="#6FB854"/>
<stop offset="0.4382" stop-color="#79983C"/>
<stop offset="0.5996" stop-color="#7F812C"/>
<stop offset="0.7511" stop-color="#847321"/>
<stop offset="0.8828" stop-color="#856E1E"/>
</linearGradient>
<linearGradient id="paint2_linear_1241_2769" x1="17.3282" y1="24.0218" x2="22.3593" y2="42.6277" gradientUnits="userSpaceOnUse">
<stop stop-color="#5BFC85"/>
<stop offset="0.098061" stop-color="#63E171"/>
<stop offset="0.27" stop-color="#6FB854"/>
<stop offset="0.4382" stop-color="#79983C"/>
<stop offset="0.5996" stop-color="#7F812C"/>
<stop offset="0.7511" stop-color="#847321"/>
<stop offset="0.8828" stop-color="#856E1E"/>
</linearGradient>
<linearGradient id="paint3_linear_1241_2769" x1="17.3282" y1="24.0218" x2="22.3593" y2="42.6277" gradientUnits="userSpaceOnUse">
<stop stop-color="#5BFC85"/>
<stop offset="0.098061" stop-color="#63E171"/>
<stop offset="0.27" stop-color="#6FB854"/>
<stop offset="0.4382" stop-color="#79983C"/>
<stop offset="0.5996" stop-color="#7F812C"/>
<stop offset="0.7511" stop-color="#847321"/>
<stop offset="0.8828" stop-color="#856E1E"/>
</linearGradient>
<linearGradient id="paint4_linear_1241_2769" x1="28.2398" y1="28.8937" x2="18.353" y2="46.3186" gradientUnits="userSpaceOnUse">
<stop stop-color="#CFAE48"/>
<stop offset="0.485083" stop-color="#86712E"/>
<stop offset="1" stop-color="#584818"/>
</linearGradient>
<linearGradient id="paint5_linear_1241_2769" x1="10.7521" y1="40.5984" x2="31.0383" y2="27.0515" gradientUnits="userSpaceOnUse">
<stop/>
<stop offset="1" stopOpacity="0"/>
</linearGradient>
<linearGradient id="paint6_linear_1241_2769" x1="29.1448" y1="34.8478" x2="22.8366" y2="47.2293" gradientUnits="userSpaceOnUse">
<stop stop-color="#745D18"/>
<stop offset="1" stop-color="#3E3210"/>
</linearGradient>
<linearGradient id="paint7_linear_1241_2769" x1="19.6756" y1="45.6137" x2="23.8216" y2="47.4904" gradientUnits="userSpaceOnUse">
<stop/>
<stop offset="1" stopOpacity="0"/>
</linearGradient>
<linearGradient id="paint8_linear_1241_2769" x1="28.8509" y1="32.2043" x2="31.9895" y2="34.1845" gradientUnits="userSpaceOnUse">
<stop stop-color="#645219"/>
<stop offset="0.0001" stop-color="#645219"/>
<stop offset="1" stop-color="#3E3210" stopOpacity="0"/>
</linearGradient>
<linearGradient id="paint9_linear_1241_2769" x1="19.6717" y1="45.6146" x2="23.8177" y2="47.4914" gradientUnits="userSpaceOnUse">
<stop/>
<stop offset="1" stopOpacity="0"/>
</linearGradient>
<linearGradient id="paint10_linear_1241_2769" x1="22.2847" y1="25.101" x2="12.0807" y2="41.0766" gradientUnits="userSpaceOnUse">
<stop stop-color="#D9D952"/>
<stop offset="0.0276529" stop-color="#D4D350"/>
<stop offset="0.2407" stop-color="#B1AA3F"/>
<stop offset="0.4492" stop-color="#968A32"/>
<stop offset="0.6491" stop-color="#837329"/>
<stop offset="0.8369" stop-color="#776523"/>
<stop offset="1" stop-color="#736021"/>
</linearGradient>
<linearGradient id="paint11_linear_1241_2769" x1="6.86437" y1="30.8899" x2="26.8264" y2="24.5772" gradientUnits="userSpaceOnUse">
<stop stop-color="#7C6B26"/>
<stop offset="1" stop-color="#80FFA2" stopOpacity="0"/>
</linearGradient>
<linearGradient id="paint12_linear_1241_2769" x1="22.2886" y1="25.102" x2="12.0846" y2="41.0775" gradientUnits="userSpaceOnUse">
<stop stop-color="#D9D952"/>
<stop offset="0.0276529" stop-color="#D4D350"/>
<stop offset="0.2407" stop-color="#B1AA3F"/>
<stop offset="0.4492" stop-color="#968A32"/>
<stop offset="0.6491" stop-color="#837329"/>
<stop offset="0.8369" stop-color="#776523"/>
<stop offset="1" stop-color="#736021"/>
</linearGradient>
<linearGradient id="paint13_linear_1241_2769" x1="14.8505" y1="36.845" x2="27.6467" y2="25.9426" gradientUnits="userSpaceOnUse">
<stop stop-color="#796828"/>
<stop offset="1" stop-color="#F8F885"/>
</linearGradient>
<linearGradient id="paint14_linear_1241_2769" x1="17.5644" y1="34.7545" x2="18.5371" y2="26.681" gradientUnits="userSpaceOnUse">
<stop stop-color="#D8BC60"/>
<stop offset="0.0490445" stop-color="#CDBF62"/>
<stop offset="0.2646" stop-color="#A2CD6A"/>
<stop offset="0.4731" stop-color="#7FD871"/>
<stop offset="0.6701" stop-color="#67E075"/>
<stop offset="0.8508" stop-color="#58E478"/>
<stop offset="1" stop-color="#53E679"/>
</linearGradient>
<linearGradient id="paint15_linear_1241_2769" x1="14.9162" y1="25.3281" x2="23.8223" y2="22.3764" gradientUnits="userSpaceOnUse">
<stop stop-color="#3AD864"/>
<stop offset="1" stop-color="#3AD864" stopOpacity="0"/>
</linearGradient>
<linearGradient id="paint16_linear_1241_2769" x1="17.5624" y1="34.754" x2="18.5352" y2="26.6805" gradientUnits="userSpaceOnUse">
<stop stop-color="#D8BC60"/>
<stop offset="0.0490445" stop-color="#CDBF62"/>
<stop offset="0.2646" stop-color="#A2CD6A"/>
<stop offset="0.4731" stop-color="#7FD871"/>
<stop offset="0.6701" stop-color="#67E075"/>
<stop offset="0.8508" stop-color="#58E478"/>
<stop offset="1" stop-color="#53E679"/>
</linearGradient>
<linearGradient id="paint17_linear_1241_2769" x1="29.9284" y1="23.4163" x2="16.3304" y2="31.1964" gradientUnits="userSpaceOnUse">
<stop stop-color="#C2FFD1"/>
<stop offset="1" stop-color="#88EEA1"/>
</linearGradient>
<linearGradient id="paint18_linear_1241_2769" x1="20.7394" y1="20.9357" x2="19.4538" y2="27.2011" gradientUnits="userSpaceOnUse">
<stop stop-color="#5BFC85"/>
<stop offset="1" stop-color="#5BFC85"/>
</linearGradient>
<linearGradient id="paint19_linear_1241_2769" x1="20.7375" y1="20.9356" x2="19.4518" y2="27.2011" gradientUnits="userSpaceOnUse">
<stop stop-color="#5BFC85"/>
<stop offset="1" stop-color="#5BFC85"/>
</linearGradient>
<linearGradient id="paint20_linear_1241_2769" x1="29.1448" y1="34.8488" x2="22.8366" y2="47.2303" gradientUnits="userSpaceOnUse">
<stop stop-color="#745D18"/>
<stop offset="1" stop-color="#3E3210"/>
</linearGradient>
<linearGradient id="paint21_linear_1241_2769" x1="19.6756" y1="45.6146" x2="23.8216" y2="47.4914" gradientUnits="userSpaceOnUse">
<stop/>
<stop offset="1" stopOpacity="0"/>
</linearGradient>
<linearGradient id="paint22_linear_1241_2769" x1="22.2348" y1="29.115" x2="17.0028" y2="42.8681" gradientUnits="userSpaceOnUse">
<stop stop-color="#B69736"/>
<stop offset="0.0576265" stop-color="#AE9033"/>
<stop offset="0.3151" stop-color="#8E752A"/>
<stop offset="0.5636" stop-color="#776223"/>
<stop offset="0.7971" stop-color="#69561E"/>
<stop offset="1" stop-color="#64521D"/>
</linearGradient>
<linearGradient id="paint23_linear_1241_2769" x1="31.3817" y1="29.6104" x2="23.6528" y2="44.7269" gradientUnits="userSpaceOnUse">
<stop stop-color="#E0C05C"/>
<stop offset="1" stop-color="#7A6526"/>
</linearGradient>
</defs>
</svg>
