<svg width="3636" height="2056" viewBox="0 0 3636 2056" fill="none" xmlns="http://www.w3.org/2000/svg">
<path d="M36.0274 1688.94L0 1681.7L5.72205e-05 0H3636L3636 1689.98L3587.5 1692.4C3586.12 1691.59 3581.96 1690.46 3576.42 1692.4C3570.87 1694.33 3565.79 1709.29 3563.95 1716.53H3544.55C3533.46 1716.53 3540.39 1723.77 3527.92 1726.18C3515.45 1728.59 3505.75 1731.01 3493.28 1733.42C3483.3 1735.35 3439.24 1747.1 3418.45 1752.73C3417.53 1752.73 3414.57 1750.31 3410.14 1740.66C3389.07 1752.24 3356.09 1745.39 3342.24 1745.39V1755.04L3338.08 1752.63L3293.74 1762.28L3292.35 1779.17L3286.81 1764.69L3254.94 1769.52L3256.33 1784C3255.4 1782.39 3252.72 1778.21 3249.4 1774.35C3242.47 1771.93 3202.29 1792.92 3164.87 1809.81C3134.94 1823.32 3086.81 1789.43 3066.49 1783.8C3066.49 1785.41 3066.21 1789.59 3065.1 1793.45C3063.72 1798.28 3045.7 1791.04 3040.16 1798.28C3036 1793.45 3022.15 1800.69 3019.38 1803.11C3016.61 1805.52 3016.61 1812.76 3015.22 1807.93C3014.11 1804.07 2999.05 1803.11 2991.66 1803.11C2992.13 1806.32 2992.77 1813.24 2991.66 1815.17C2990.56 1817.1 2968.11 1814.37 2957.02 1812.76L2958.41 1824.83H2933.47C2930.69 1824.83 2927.92 1841.72 2922.38 1844.13C2917.95 1846.06 2892.82 1849.76 2880.81 1851.37L2876.65 1836.89C2847.09 1845.74 2780.21 1852.85 2749.17 1862.5C2713.14 1867.33 2721.46 1867.33 2696.52 1876.98C2672.96 1884.22 2631.39 1889.05 2624.46 1893.87C2617.53 1898.7 2564.88 1920.42 2527.46 1932.49C2524.14 1926.69 2533.47 1917.2 2538.55 1913.18C2516.38 1913.18 2452.64 1903.86 2408.3 1906.28C2363.95 1903.86 2341.78 1918.34 2327.93 1930.41C2323.77 1925.58 2334.86 1918.34 2337.63 1908.69C2322.39 1915.93 2300.21 1923.17 2271.11 1935.24C2242.02 1947.3 2172.06 1943.65 2159.59 1941.23C2147.12 1938.82 2158.2 1938.82 2148.5 1938.82C2140.74 1938.82 2125.87 1958.13 2119.4 1967.78H2094.46C2088.92 1967.78 2068.13 1987.09 2062.59 1982.26C2057.05 1977.43 1959.86 2008.07 1946 2010.49C1934.92 2012.42 1881.52 2049.25 1857.5 2053.28C1857.5 2050.86 1856.95 2045.07 1854.73 2041.21C1851.96 2036.38 1846.42 2050.86 1843.64 2050.86C1841.43 2050.86 1842.3 2047.65 1843.01 2046.04C1841.38 2045.23 1837.55 2043.62 1835.33 2043.62C1832.56 2043.62 1832.56 2053.28 1831.17 2055.69C1830.06 2057.62 1828.86 2050.06 1828.4 2046.04C1823.32 2044.43 1812.61 2040.24 1810.39 2036.38C1807.62 2031.56 1807.62 2043.62 1804.85 2041.21C1802.07 2038.8 1803.46 2038.8 1802.07 2036.38C1800.69 2033.97 1803.46 2041.21 1764.66 2041.21C1733.62 2041.21 1665.74 2010.47 1656.5 2003.23L1655.12 2017.71L1653.73 2003.23L1637.1 2000.82V2005.62L1632.94 1995.99H1602.46C1602.92 1995.99 1603.85 1994.06 1603.85 1986.34C1585 1990.2 1571.05 1983.12 1566.43 1979.1C1565.97 1979.91 1564.49 1983.44 1562.28 1991.17C1545.65 1981.51 1393.99 1956.02 1363.5 1946.36C1333.02 1936.71 1330.24 1943.01 1319.16 1921.29C1310.29 1903.92 1278.51 1906.01 1263.73 1909.23C1259.11 1906.01 1249.32 1898.13 1247.1 1892.33C1244.33 1885.09 1229.09 1873.03 1227.71 1875.44C1226.32 1877.85 1236.02 1882.68 1220.78 1882.68C1205.53 1882.68 1109.92 1895.89 1089.14 1891.06C1070.63 1886.76 1046.62 1870.97 1042.57 1867.57C1043.92 1870.26 1046.37 1880.66 1047.57 1886.23C1042.95 1883.01 1032.6 1876.1 1028.17 1874.17C1022.63 1871.75 1007.38 1869.34 967.198 1866.93C935.79 1844.29 859.498 1852.29 822.838 1848.91C826.836 1850.2 835.663 1855.01 852.187 1867.96C826.691 1869.89 778.747 1844.64 757.962 1831.76C757.5 1829.35 752.696 1825.01 737.177 1826.94C721.657 1828.87 681.75 1810.04 663.736 1800.39C661.888 1797.98 652.374 1793.63 629.094 1795.56C605.815 1797.5 535.331 1811.22 502.998 1799.95L498.841 1812.02C487.756 1810.41 463.922 1806.71 457.271 1804.78C450.62 1802.85 448.033 1791.11 447.571 1785.48H424.015V1775.82C424.015 1773.89 399.073 1775.02 386.602 1775.82C387.988 1774.21 389.928 1770.03 386.602 1766.17C383.276 1762.31 368.588 1769.39 361.66 1773.41C362.122 1772.6 363.046 1769.55 363.046 1763.76C363.046 1757.96 330.713 1754.91 314.547 1754.1C315.471 1752.49 316.487 1749.28 313.161 1749.28C309.004 1749.28 253.578 1756.52 239.721 1754.1C228.636 1752.17 162.123 1727.56 130.253 1715.49L128.867 1727.56L126.096 1715.49L92.8399 1705.84L88.6829 1715.49V1703.42L41.5701 1696.18L36.0274 1703.42V1688.94Z" fill="#141201"/>
</svg>
