<svg width="53" height="56" viewBox="0 0 53 56" fill="none" xmlns="http://www.w3.org/2000/svg">
<g filter="url(#filter0_d_1_322)">
<path d="M10.4102 0.5H42.4102C45.4477 0.5 47.9102 2.96243 47.9102 6V34.3864C47.9102 36.5656 46.6234 38.5394 44.6295 39.4187L28.6295 46.4748C27.2156 47.0983 25.6047 47.0983 24.1909 46.4748L8.19085 39.4187C6.19687 38.5394 4.91016 36.5656 4.91016 34.3864V6C4.91016 2.96244 7.37259 0.5 10.4102 0.5Z" fill="#0E1634"/>
<path d="M10.4102 0.5H42.4102C45.4477 0.5 47.9102 2.96243 47.9102 6V34.3864C47.9102 36.5656 46.6234 38.5394 44.6295 39.4187L28.6295 46.4748C27.2156 47.0983 25.6047 47.0983 24.1909 46.4748L8.19085 39.4187C6.19687 38.5394 4.91016 36.5656 4.91016 34.3864V6C4.91016 2.96244 7.37259 0.5 10.4102 0.5Z" fill="url(#paint0_radial_1_322)" fill-opacity="0.4"/>
<path d="M10.4102 0.5H42.4102C45.4477 0.5 47.9102 2.96243 47.9102 6V34.3864C47.9102 36.5656 46.6234 38.5394 44.6295 39.4187L28.6295 46.4748C27.2156 47.0983 25.6047 47.0983 24.1909 46.4748L8.19085 39.4187C6.19687 38.5394 4.91016 36.5656 4.91016 34.3864V6C4.91016 2.96244 7.37259 0.5 10.4102 0.5Z" stroke="url(#paint1_linear_1_322)"/>
<rect x="12.4102" y="7" width="28" height="28" rx="14" fill="#1275B1"/>
<path d="M23.0287 14.6921C23.0287 15.6267 22.2187 16.3843 21.2194 16.3843C20.2202 16.3843 19.4102 15.6267 19.4102 14.6921C19.4102 13.7576 20.2202 13 21.2194 13C22.2187 13 23.0287 13.7576 23.0287 14.6921Z" fill="white"/>
<path d="M19.6576 17.6281H22.7504V27H19.6576V17.6281Z" fill="white"/>
<path d="M27.7297 17.6281H24.637V27H27.7297C27.7297 27 27.7297 24.0496 27.7297 22.2049C27.7297 21.0976 28.1078 19.9855 29.6163 19.9855C31.3212 19.9855 31.3109 21.4345 31.303 22.5571C31.2926 24.0244 31.3174 25.5219 31.3174 27H34.4102V22.0537C34.384 18.8954 33.561 17.4401 30.8535 17.4401C29.2456 17.4401 28.2489 18.1701 27.7297 18.8305V17.6281Z" fill="white"/>
</g>
<defs>
<filter id="filter0_d_1_322" x="0.410156" y="0" width="52" height="56" filterUnits="userSpaceOnUse" colorInterpolationFilters="sRGB">
<feFlood flood-opacity="0" result="BackgroundImageFix"/>
<feColorMatrix in="SourceAlpha" type="matrix" values="0 0 0 0 0 0 0 0 0 0 0 0 0 0 0 0 0 0 127 0" result="hardAlpha"/>
<feOffset dy="4"/>
<feGaussianBlur stdDeviation="2"/>
<feComposite in2="hardAlpha" operator="out"/>
<feColorMatrix type="matrix" values="0 0 0 0 0 0 0 0 0 0 0 0 0 0 0 0 0 0 0.25 0"/>
<feBlend mode="normal" in2="BackgroundImageFix" result="effect1_dropShadow_1_322"/>
<feBlend mode="normal" in="SourceGraphic" in2="effect1_dropShadow_1_322" result="shape"/>
</filter>
<radialGradient id="paint0_radial_1_322" cx="0" cy="0" r="1" gradientUnits="userSpaceOnUse" gradientTransform="translate(26.4102 48) rotate(-90) scale(32.2759 29.5862)">
<stop stop-color="#70C2FD"/>
<stop offset="1" stop-color="#1C5B88"/>
</radialGradient>
<linearGradient id="paint1_linear_1_322" x1="26.4102" y1="0" x2="26.4102" y2="48" gradientUnits="userSpaceOnUse">
<stop stop-color="#284F93"/>
<stop offset="1" stopColor="#2C3D52"/>
</linearGradient>
</defs>
</svg>
